<?xml version="1.0" encoding="UTF-8"?>
<!DOCTYPE svg  PUBLIC '-//W3C//DTD SVG 1.1//EN'  'http://www.w3.org/Graphics/SVG/1.1/DTD/svg11.dtd'>
<svg version="1.1" xmlns="http://www.w3.org/2000/svg">
<defs>
<font id="Soccer-Scoreboard" horiz-adv-x="2925">
<font-face font-family="Soccer Scoreboard" font-weight="400" ascent="4096" bbox="117 117 2808 3978" cap-height="3978" descent="0" panose-1="0 0 4 0 0 0 0 0 0 0" underline-position="307" underline-thickness="204" unicode-range="U+0020-00FE" units-per-em="4096" x-height="3978"/>
<missing-glyph/>
<glyph glyph-name="space" horiz-adv-x="2340" unicode=" "/>
<glyph d="M117 117v351h351v-351h-351zM117 1287v351h351v-351h-351zM117 1872v351h351v-351h-351zM117 2457v351h351v-351h-351zM117 3042v351h351v-351h-351zM117 3627v351h351v-351h-351z" glyph-name="exclam" horiz-adv-x="1170" unicode="!"/>
<glyph d="M117 3042v351h351v-351h-351zM1287 3042v351h351v-351h-351zM117 3627v351h351v-351h-351zM1287 3627v351h351v-351h-351z" glyph-name="quotedbl" horiz-adv-x="2340" unicode='"'/>
<glyph d="M702 117v351h351v-351h-351zM1872 117v351h351v-351h-351zM702 702v351h351v-351h-351zM1872 702v351h351v-351h-351zM117 1287v351h351v-351h-351zM702 1287v351h351v-351h-351zM1287 1287v351h351v-351h-351zM1872 1287v351h351v-351h-351zM2457 1287v351h351v-351 h-351zM702 1872v351h351v-351h-351zM1872 1872v351h351v-351h-351zM117 2457v351h351v-351h-351zM702 2457v351h351v-351h-351zM1287 2457v351h351v-351h-351zM1872 2457v351h351v-351h-351zM2457 2457v351h351v-351h-351zM702 3042v351h351v-351h-351zM1872 3042v351h351 v-351h-351zM702 3627v351h351v-351h-351zM1872 3627v351h351v-351h-351z" glyph-name="numbersign" horiz-adv-x="3510" unicode="#"/>
<glyph d="M702 117v351h351v-351h-351zM117 702v351h351v-351h-351zM702 702v351h351v-351h-351zM1287 702v351h351v-351h-351zM702 1287v351h351v-351h-351zM1872 1287v351h351v-351h-351zM702 1872v351h351v-351h-351zM1287 1872v351h351v-351h-351zM117 2457v351h351v-351h-351z M1287 2457v351h351v-351h-351zM702 3042v351h351v-351h-351zM1287 3042v351h351v-351h-351zM1872 3042v351h351v-351h-351zM1287 3627v351h351v-351h-351z" glyph-name="dollar" unicode="$"/>
<glyph d="M117 117v351h351v-351h-351zM1872 117v351h351v-351h-351zM117 702v351h351v-351h-351zM702 1287v351h351v-351h-351zM702 1872v351h351v-351h-351zM1287 2457v351h351v-351h-351zM1287 3042v351h351v-351h-351zM117 3627v351h351v-351h-351zM1872 3627v351h351v-351 h-351z" glyph-name="percent" unicode="%"/>
<glyph d="M702 117v351h351v-351h-351zM1287 117v351h351v-351h-351zM2457 117v351h351v-351h-351zM117 702v351h351v-351h-351zM1872 702v351h351v-351h-351zM117 1287v351h351v-351h-351zM1872 1287v351h351v-351h-351zM702 1872v351h351v-351h-351zM1287 1872v351h351v-351h-351 zM2457 1872v351h351v-351h-351zM117 2457v351h351v-351h-351zM1872 2457v351h351v-351h-351zM117 3042v351h351v-351h-351zM1872 3042v351h351v-351h-351zM702 3627v351h351v-351h-351zM1287 3627v351h351v-351h-351z" glyph-name="ampersand" horiz-adv-x="3510" unicode="&amp;"/>
<glyph d="M117 3042v351h351v-351h-351zM117 3627v351h351v-351h-351z" glyph-name="quotesingle" horiz-adv-x="1170" unicode="'"/>
<glyph d="M1287 117v351h351v-351h-351zM702 702v351h351v-351h-351zM702 1287v351h351v-351h-351zM702 1872v351h351v-351h-351zM702 2457v351h351v-351h-351zM702 3042v351h351v-351h-351zM1287 3627v351h351v-351h-351z" glyph-name="parenleft" horiz-adv-x="2340" unicode="("/>
<glyph d="M702 117v351h351v-351h-351zM1287 702v351h351v-351h-351zM1287 1287v351h351v-351h-351zM1287 1872v351h351v-351h-351zM1287 2457v351h351v-351h-351zM1287 3042v351h351v-351h-351zM702 3627v351h351v-351h-351z" glyph-name="parenright" horiz-adv-x="2340" unicode=")"/>
<glyph d="M117 1872v351h351v-351h-351zM1287 1872v351h351v-351h-351zM702 2457v351h351v-351h-351zM117 3042v351h351v-351h-351zM702 3042v351h351v-351h-351zM1287 3042v351h351v-351h-351zM702 3627v351h351v-351h-351z" glyph-name="asterisk" horiz-adv-x="2340" unicode="*"/>
<glyph d="M1287 702v351h351v-351h-351zM1287 1287v351h351v-351h-351zM117 1872v351h351v-351h-351zM702 1872v351h351v-351h-351zM1287 1872v351h351v-351h-351zM1872 1872v351h351v-351h-351zM2457 1872v351h351v-351h-351zM1287 2457v351h351v-351h-351zM1287 3042v351h351 v-351h-351z" glyph-name="plus" horiz-adv-x="3510" unicode="+"/>
<glyph d="M117 117v351h351v-351h-351zM702 702v351h351v-351h-351z" glyph-name="comma" horiz-adv-x="1755" unicode=","/>
<glyph d="M117 1872v351h351v-351h-351zM702 1872v351h351v-351h-351zM1287 1872v351h351v-351h-351zM1872 1872v351h351v-351h-351z" glyph-name="hyphen" unicode="-"/>
<glyph d="M117 117v351h351v-351h-351z" glyph-name="period" horiz-adv-x="1170" unicode="."/>
<glyph d="M117 117v351h351v-351h-351zM117 702v351h351v-351h-351zM702 1287v351h351v-351h-351zM702 1872v351h351v-351h-351zM1287 2457v351h351v-351h-351zM1287 3042v351h351v-351h-351zM1872 3627v351h351v-351h-351z" glyph-name="slash" unicode="/"/>
<glyph d="M117 117v351h351v-351h-351zM702 117v351h351v-351h-351zM1287 117v351h351v-351h-351zM1872 117v351h351v-351h-351zM117 702v351h351v-351h-351zM1872 702v351h351v-351h-351zM117 1287v351h351v-351h-351zM1872 1287v351h351v-351h-351zM117 1872v351h351v-351h-351z M1872 1872v351h351v-351h-351zM117 2457v351h351v-351h-351zM1872 2457v351h351v-351h-351zM117 3042v351h351v-351h-351zM1872 3042v351h351v-351h-351zM117 3627v351h351v-351h-351zM702 3627v351h351v-351h-351zM1287 3627v351h351v-351h-351zM1872 3627v351h351v-351 h-351z" glyph-name="zero" unicode="0"/>
<glyph d="M1872 117v351h351v-351h-351zM1872 702v351h351v-351h-351zM1872 1287v351h351v-351h-351zM1872 1872v351h351v-351h-351zM1872 2457v351h351v-351h-351zM1872 3042v351h351v-351h-351zM1287 3627v351h351v-351h-351zM1872 3627v351h351v-351h-351z" glyph-name="one" unicode="1"/>
<glyph d="M117 117v351h351v-351h-351zM702 117v351h351v-351h-351zM1287 117v351h351v-351h-351zM1872 117v351h351v-351h-351zM117 702v351h351v-351h-351zM117 1287v351h351v-351h-351zM117 1872v351h351v-351h-351zM702 1872v351h351v-351h-351zM1287 1872v351h351v-351h-351z M1872 1872v351h351v-351h-351zM1872 2457v351h351v-351h-351zM1872 3042v351h351v-351h-351zM117 3627v351h351v-351h-351zM702 3627v351h351v-351h-351zM1287 3627v351h351v-351h-351zM1872 3627v351h351v-351h-351z" glyph-name="two" unicode="2"/>
<glyph d="M117 117v351h351v-351h-351zM702 117v351h351v-351h-351zM1287 117v351h351v-351h-351zM1872 117v351h351v-351h-351zM1872 702v351h351v-351h-351zM1872 1287v351h351v-351h-351zM117 1872v351h351v-351h-351zM702 1872v351h351v-351h-351zM1287 1872v351h351v-351h-351 zM1872 1872v351h351v-351h-351zM1872 2457v351h351v-351h-351zM1872 3042v351h351v-351h-351zM117 3627v351h351v-351h-351zM702 3627v351h351v-351h-351zM1287 3627v351h351v-351h-351zM1872 3627v351h351v-351h-351z" glyph-name="three" unicode="3"/>
<glyph d="M1872 117v351h351v-351h-351zM1872 702v351h351v-351h-351zM1872 1287v351h351v-351h-351zM117 1872v351h351v-351h-351zM702 1872v351h351v-351h-351zM1287 1872v351h351v-351h-351zM1872 1872v351h351v-351h-351zM117 2457v351h351v-351h-351zM1872 2457v351h351v-351 h-351zM117 3042v351h351v-351h-351zM1872 3042v351h351v-351h-351zM117 3627v351h351v-351h-351zM1872 3627v351h351v-351h-351z" glyph-name="four" unicode="4"/>
<glyph d="M117 117v351h351v-351h-351zM702 117v351h351v-351h-351zM1287 117v351h351v-351h-351zM1872 117v351h351v-351h-351zM1872 702v351h351v-351h-351zM1872 1287v351h351v-351h-351zM117 1872v351h351v-351h-351zM702 1872v351h351v-351h-351zM1287 1872v351h351v-351h-351 zM1872 1872v351h351v-351h-351zM117 2457v351h351v-351h-351zM117 3042v351h351v-351h-351zM117 3627v351h351v-351h-351zM702 3627v351h351v-351h-351zM1287 3627v351h351v-351h-351zM1872 3627v351h351v-351h-351z" glyph-name="five" unicode="5"/>
<glyph d="M117 117v351h351v-351h-351zM702 117v351h351v-351h-351zM1287 117v351h351v-351h-351zM1872 117v351h351v-351h-351zM117 702v351h351v-351h-351zM1872 702v351h351v-351h-351zM117 1287v351h351v-351h-351zM1872 1287v351h351v-351h-351zM117 1872v351h351v-351h-351z M702 1872v351h351v-351h-351zM1287 1872v351h351v-351h-351zM1872 1872v351h351v-351h-351zM117 2457v351h351v-351h-351zM117 3042v351h351v-351h-351zM117 3627v351h351v-351h-351zM702 3627v351h351v-351h-351zM1287 3627v351h351v-351h-351zM1872 3627v351h351v-351 h-351z" glyph-name="six" unicode="6"/>
<glyph d="M1872 117v351h351v-351h-351zM1872 702v351h351v-351h-351zM1872 1287v351h351v-351h-351zM1872 1872v351h351v-351h-351zM1872 2457v351h351v-351h-351zM1872 3042v351h351v-351h-351zM117 3627v351h351v-351h-351zM702 3627v351h351v-351h-351zM1287 3627v351h351v-351 h-351zM1872 3627v351h351v-351h-351z" glyph-name="seven" unicode="7"/>
<glyph d="M117 117v351h351v-351h-351zM702 117v351h351v-351h-351zM1287 117v351h351v-351h-351zM1872 117v351h351v-351h-351zM117 702v351h351v-351h-351zM1872 702v351h351v-351h-351zM117 1287v351h351v-351h-351zM1872 1287v351h351v-351h-351zM117 1872v351h351v-351h-351z M702 1872v351h351v-351h-351zM1287 1872v351h351v-351h-351zM1872 1872v351h351v-351h-351zM117 2457v351h351v-351h-351zM1872 2457v351h351v-351h-351zM117 3042v351h351v-351h-351zM1872 3042v351h351v-351h-351zM117 3627v351h351v-351h-351zM702 3627v351h351v-351 h-351zM1287 3627v351h351v-351h-351zM1872 3627v351h351v-351h-351z" glyph-name="eight" unicode="8"/>
<glyph d="M117 117v351h351v-351h-351zM702 117v351h351v-351h-351zM1287 117v351h351v-351h-351zM1872 117v351h351v-351h-351zM1872 702v351h351v-351h-351zM1872 1287v351h351v-351h-351zM117 1872v351h351v-351h-351zM702 1872v351h351v-351h-351zM1287 1872v351h351v-351h-351 zM1872 1872v351h351v-351h-351zM117 2457v351h351v-351h-351zM1872 2457v351h351v-351h-351zM117 3042v351h351v-351h-351zM1872 3042v351h351v-351h-351zM117 3627v351h351v-351h-351zM702 3627v351h351v-351h-351zM1287 3627v351h351v-351h-351zM1872 3627v351h351v-351 h-351z" glyph-name="nine" unicode="9"/>
<glyph d="M117 117v351h351v-351h-351zM117 2457v351h351v-351h-351z" glyph-name="colon" horiz-adv-x="1170" unicode=":"/>
<glyph d="M117 117v351h351v-351h-351zM702 702v351h351v-351h-351zM702 2457v351h351v-351h-351z" glyph-name="semicolon" horiz-adv-x="1755" unicode=";"/>
<glyph d="M1287 702v351h351v-351h-351zM702 1287v351h351v-351h-351zM117 1872v351h351v-351h-351zM702 2457v351h351v-351h-351zM1287 3042v351h351v-351h-351z" glyph-name="less" horiz-adv-x="2340" unicode="&lt;"/>
<glyph d="M117 1287v351h351v-351h-351zM702 1287v351h351v-351h-351zM1287 1287v351h351v-351h-351zM1872 1287v351h351v-351h-351zM117 2457v351h351v-351h-351zM702 2457v351h351v-351h-351zM1287 2457v351h351v-351h-351zM1872 2457v351h351v-351h-351z" glyph-name="equal" unicode="="/>
<glyph d="M702 702v351h351v-351h-351zM1287 1287v351h351v-351h-351zM1872 1872v351h351v-351h-351zM1287 2457v351h351v-351h-351zM702 3042v351h351v-351h-351z" glyph-name="greater" unicode="&gt;"/>
<glyph d="M702 117v351h351v-351h-351zM702 1287v351h351v-351h-351zM702 1872v351h351v-351h-351zM1287 1872v351h351v-351h-351zM1872 2457v351h351v-351h-351zM117 3042v351h351v-351h-351zM1872 3042v351h351v-351h-351zM702 3627v351h351v-351h-351zM1287 3627v351h351v-351 h-351z" glyph-name="question" unicode="?"/>
<glyph d="M702 117v351h351v-351h-351zM1287 117v351h351v-351h-351zM117 702v351h351v-351h-351zM117 1287v351h351v-351h-351zM1287 1287v351h351v-351h-351zM1872 1287v351h351v-351h-351zM117 1872v351h351v-351h-351zM1287 1872v351h351v-351h-351zM1872 1872v351h351v-351 h-351zM117 2457v351h351v-351h-351zM1872 2457v351h351v-351h-351zM117 3042v351h351v-351h-351zM1872 3042v351h351v-351h-351zM702 3627v351h351v-351h-351zM1287 3627v351h351v-351h-351z" glyph-name="at" unicode="@"/>
<glyph d="M117 117v351h351v-351h-351zM1872 117v351h351v-351h-351zM117 702v351h351v-351h-351zM1872 702v351h351v-351h-351zM117 1287v351h351v-351h-351zM1872 1287v351h351v-351h-351zM117 1872v351h351v-351h-351zM702 1872v351h351v-351h-351zM1287 1872v351h351v-351h-351 zM1872 1872v351h351v-351h-351zM117 2457v351h351v-351h-351zM1872 2457v351h351v-351h-351zM117 3042v351h351v-351h-351zM1872 3042v351h351v-351h-351zM702 3627v351h351v-351h-351zM1287 3627v351h351v-351h-351z" glyph-name="A" unicode="A"/>
<glyph d="M117 117v351h351v-351h-351zM702 117v351h351v-351h-351zM1287 117v351h351v-351h-351zM117 702v351h351v-351h-351zM1872 702v351h351v-351h-351zM117 1287v351h351v-351h-351zM1872 1287v351h351v-351h-351zM117 1872v351h351v-351h-351zM702 1872v351h351v-351h-351z M1287 1872v351h351v-351h-351zM117 2457v351h351v-351h-351zM1872 2457v351h351v-351h-351zM117 3042v351h351v-351h-351zM1872 3042v351h351v-351h-351zM117 3627v351h351v-351h-351zM702 3627v351h351v-351h-351zM1287 3627v351h351v-351h-351z" glyph-name="B" unicode="B"/>
<glyph d="M702 117v351h351v-351h-351zM1287 117v351h351v-351h-351zM117 702v351h351v-351h-351zM1872 702v351h351v-351h-351zM117 1287v351h351v-351h-351zM117 1872v351h351v-351h-351zM117 2457v351h351v-351h-351zM117 3042v351h351v-351h-351zM1872 3042v351h351v-351h-351z M702 3627v351h351v-351h-351zM1287 3627v351h351v-351h-351z" glyph-name="C" unicode="C"/>
<glyph d="M117 117v351h351v-351h-351zM702 117v351h351v-351h-351zM1287 117v351h351v-351h-351zM117 702v351h351v-351h-351zM1872 702v351h351v-351h-351zM117 1287v351h351v-351h-351zM1872 1287v351h351v-351h-351zM117 1872v351h351v-351h-351zM1872 1872v351h351v-351h-351z M117 2457v351h351v-351h-351zM1872 2457v351h351v-351h-351zM117 3042v351h351v-351h-351zM1872 3042v351h351v-351h-351zM117 3627v351h351v-351h-351zM702 3627v351h351v-351h-351zM1287 3627v351h351v-351h-351z" glyph-name="D" unicode="D"/>
<glyph d="M117 117v351h351v-351h-351zM702 117v351h351v-351h-351zM1287 117v351h351v-351h-351zM1872 117v351h351v-351h-351zM117 702v351h351v-351h-351zM117 1287v351h351v-351h-351zM117 1872v351h351v-351h-351zM702 1872v351h351v-351h-351zM1287 1872v351h351v-351h-351z M1872 1872v351h351v-351h-351zM117 2457v351h351v-351h-351zM117 3042v351h351v-351h-351zM117 3627v351h351v-351h-351zM702 3627v351h351v-351h-351zM1287 3627v351h351v-351h-351zM1872 3627v351h351v-351h-351z" glyph-name="E" unicode="E"/>
<glyph d="M117 117v351h351v-351h-351zM117 702v351h351v-351h-351zM117 1287v351h351v-351h-351zM117 1872v351h351v-351h-351zM702 1872v351h351v-351h-351zM1287 1872v351h351v-351h-351zM1872 1872v351h351v-351h-351zM117 2457v351h351v-351h-351zM117 3042v351h351v-351h-351 zM117 3627v351h351v-351h-351zM702 3627v351h351v-351h-351zM1287 3627v351h351v-351h-351zM1872 3627v351h351v-351h-351z" glyph-name="F" unicode="F"/>
<glyph d="M702 117v351h351v-351h-351zM1287 117v351h351v-351h-351zM117 702v351h351v-351h-351zM1872 702v351h351v-351h-351zM117 1287v351h351v-351h-351zM1872 1287v351h351v-351h-351zM117 1872v351h351v-351h-351zM1287 1872v351h351v-351h-351zM1872 1872v351h351v-351 h-351zM117 2457v351h351v-351h-351zM117 3042v351h351v-351h-351zM1872 3042v351h351v-351h-351zM702 3627v351h351v-351h-351zM1287 3627v351h351v-351h-351z" glyph-name="G" unicode="G"/>
<glyph d="M117 117v351h351v-351h-351zM1872 117v351h351v-351h-351zM117 702v351h351v-351h-351zM1872 702v351h351v-351h-351zM117 1287v351h351v-351h-351zM1872 1287v351h351v-351h-351zM117 1872v351h351v-351h-351zM702 1872v351h351v-351h-351zM1287 1872v351h351v-351h-351 zM1872 1872v351h351v-351h-351zM117 2457v351h351v-351h-351zM1872 2457v351h351v-351h-351zM117 3042v351h351v-351h-351zM1872 3042v351h351v-351h-351zM117 3627v351h351v-351h-351zM1872 3627v351h351v-351h-351z" glyph-name="H" unicode="H"/>
<glyph d="M702 117v351h351v-351h-351zM1287 117v351h351v-351h-351zM1872 117v351h351v-351h-351zM1287 702v351h351v-351h-351zM1287 1287v351h351v-351h-351zM1287 1872v351h351v-351h-351zM1287 2457v351h351v-351h-351zM1287 3042v351h351v-351h-351zM702 3627v351h351v-351 h-351zM1287 3627v351h351v-351h-351zM1872 3627v351h351v-351h-351z" glyph-name="I" unicode="I"/>
<glyph d="M702 117v351h351v-351h-351zM1287 117v351h351v-351h-351zM117 702v351h351v-351h-351zM1872 702v351h351v-351h-351zM1872 1287v351h351v-351h-351zM1872 1872v351h351v-351h-351zM1872 2457v351h351v-351h-351zM1872 3042v351h351v-351h-351zM702 3627v351h351v-351 h-351zM1287 3627v351h351v-351h-351zM1872 3627v351h351v-351h-351z" glyph-name="J" unicode="J"/>
<glyph d="M117 117v351h351v-351h-351zM1872 117v351h351v-351h-351zM117 702v351h351v-351h-351zM1872 702v351h351v-351h-351zM117 1287v351h351v-351h-351zM1872 1287v351h351v-351h-351zM117 1872v351h351v-351h-351zM702 1872v351h351v-351h-351zM1287 1872v351h351v-351h-351 zM117 2457v351h351v-351h-351zM1872 2457v351h351v-351h-351zM117 3042v351h351v-351h-351zM1872 3042v351h351v-351h-351zM117 3627v351h351v-351h-351zM1872 3627v351h351v-351h-351z" glyph-name="K" unicode="K"/>
<glyph d="M117 117v351h351v-351h-351zM702 117v351h351v-351h-351zM1287 117v351h351v-351h-351zM1872 117v351h351v-351h-351zM117 702v351h351v-351h-351zM117 1287v351h351v-351h-351zM117 1872v351h351v-351h-351zM117 2457v351h351v-351h-351zM117 3042v351h351v-351h-351z M117 3627v351h351v-351h-351z" glyph-name="L" unicode="L"/>
<glyph d="M117 117v351h351v-351h-351zM2457 117v351h351v-351h-351zM117 702v351h351v-351h-351zM2457 702v351h351v-351h-351zM117 1287v351h351v-351h-351zM2457 1287v351h351v-351h-351zM117 1872v351h351v-351h-351zM2457 1872v351h351v-351h-351zM117 2457v351h351v-351h-351 zM1287 2457v351h351v-351h-351zM2457 2457v351h351v-351h-351zM117 3042v351h351v-351h-351zM702 3042v351h351v-351h-351zM1872 3042v351h351v-351h-351zM2457 3042v351h351v-351h-351zM117 3627v351h351v-351h-351zM2457 3627v351h351v-351h-351z" glyph-name="M" horiz-adv-x="3510" unicode="M"/>
<glyph d="M117 117v351h351v-351h-351zM1872 117v351h351v-351h-351zM117 702v351h351v-351h-351zM1872 702v351h351v-351h-351zM117 1287v351h351v-351h-351zM1872 1287v351h351v-351h-351zM117 1872v351h351v-351h-351zM1287 1872v351h351v-351h-351zM1872 1872v351h351v-351 h-351zM117 2457v351h351v-351h-351zM702 2457v351h351v-351h-351zM1872 2457v351h351v-351h-351zM117 3042v351h351v-351h-351zM1872 3042v351h351v-351h-351zM117 3627v351h351v-351h-351zM1872 3627v351h351v-351h-351z" glyph-name="N" unicode="N"/>
<glyph d="M702 117v351h351v-351h-351zM1287 117v351h351v-351h-351zM117 702v351h351v-351h-351zM1872 702v351h351v-351h-351zM117 1287v351h351v-351h-351zM1872 1287v351h351v-351h-351zM117 1872v351h351v-351h-351zM1872 1872v351h351v-351h-351zM117 2457v351h351v-351h-351 zM1872 2457v351h351v-351h-351zM117 3042v351h351v-351h-351zM1872 3042v351h351v-351h-351zM702 3627v351h351v-351h-351zM1287 3627v351h351v-351h-351z" glyph-name="O" unicode="O"/>
<glyph d="M117 117v351h351v-351h-351zM117 702v351h351v-351h-351zM117 1287v351h351v-351h-351zM117 1872v351h351v-351h-351zM702 1872v351h351v-351h-351zM1287 1872v351h351v-351h-351zM117 2457v351h351v-351h-351zM1872 2457v351h351v-351h-351zM117 3042v351h351v-351h-351 zM1872 3042v351h351v-351h-351zM117 3627v351h351v-351h-351zM702 3627v351h351v-351h-351zM1287 3627v351h351v-351h-351z" glyph-name="P" unicode="P"/>
<glyph d="M702 117v351h351v-351h-351zM1872 117v351h351v-351h-351zM117 702v351h351v-351h-351zM1287 702v351h351v-351h-351zM117 1287v351h351v-351h-351zM1872 1287v351h351v-351h-351zM117 1872v351h351v-351h-351zM1872 1872v351h351v-351h-351zM117 2457v351h351v-351h-351 zM1872 2457v351h351v-351h-351zM117 3042v351h351v-351h-351zM1872 3042v351h351v-351h-351zM702 3627v351h351v-351h-351zM1287 3627v351h351v-351h-351z" glyph-name="Q" unicode="Q"/>
<glyph d="M117 117v351h351v-351h-351zM1872 117v351h351v-351h-351zM117 702v351h351v-351h-351zM1872 702v351h351v-351h-351zM117 1287v351h351v-351h-351zM1872 1287v351h351v-351h-351zM117 1872v351h351v-351h-351zM702 1872v351h351v-351h-351zM1287 1872v351h351v-351h-351 zM117 2457v351h351v-351h-351zM1872 2457v351h351v-351h-351zM117 3042v351h351v-351h-351zM1872 3042v351h351v-351h-351zM117 3627v351h351v-351h-351zM702 3627v351h351v-351h-351zM1287 3627v351h351v-351h-351z" glyph-name="R" unicode="R"/>
<glyph d="M702 117v351h351v-351h-351zM1287 117v351h351v-351h-351zM117 702v351h351v-351h-351zM1872 702v351h351v-351h-351zM1872 1287v351h351v-351h-351zM702 1872v351h351v-351h-351zM1287 1872v351h351v-351h-351zM117 2457v351h351v-351h-351zM117 3042v351h351v-351h-351 zM1872 3042v351h351v-351h-351zM702 3627v351h351v-351h-351zM1287 3627v351h351v-351h-351z" glyph-name="S" unicode="S"/>
<glyph d="M1287 117v351h351v-351h-351zM1287 702v351h351v-351h-351zM1287 1287v351h351v-351h-351zM1287 1872v351h351v-351h-351zM1287 2457v351h351v-351h-351zM1287 3042v351h351v-351h-351zM702 3627v351h351v-351h-351zM1287 3627v351h351v-351h-351zM1872 3627v351h351 v-351h-351z" glyph-name="T" unicode="T"/>
<glyph d="M702 117v351h351v-351h-351zM1287 117v351h351v-351h-351zM117 702v351h351v-351h-351zM1872 702v351h351v-351h-351zM117 1287v351h351v-351h-351zM1872 1287v351h351v-351h-351zM117 1872v351h351v-351h-351zM1872 1872v351h351v-351h-351zM117 2457v351h351v-351h-351 zM1872 2457v351h351v-351h-351zM117 3042v351h351v-351h-351zM1872 3042v351h351v-351h-351zM117 3627v351h351v-351h-351zM1872 3627v351h351v-351h-351z" glyph-name="U" unicode="U"/>
<glyph d="M702 117v351h351v-351h-351zM117 702v351h351v-351h-351zM1287 702v351h351v-351h-351zM117 1287v351h351v-351h-351zM1872 1287v351h351v-351h-351zM117 1872v351h351v-351h-351zM1872 1872v351h351v-351h-351zM117 2457v351h351v-351h-351zM1872 2457v351h351v-351 h-351zM117 3042v351h351v-351h-351zM1872 3042v351h351v-351h-351zM117 3627v351h351v-351h-351zM1872 3627v351h351v-351h-351z" glyph-name="V" unicode="V"/>
<glyph d="M117 117v351h351v-351h-351zM2457 117v351h351v-351h-351zM117 702v351h351v-351h-351zM702 702v351h351v-351h-351zM1872 702v351h351v-351h-351zM2457 702v351h351v-351h-351zM117 1287v351h351v-351h-351zM1287 1287v351h351v-351h-351zM2457 1287v351h351v-351h-351z M117 1872v351h351v-351h-351zM2457 1872v351h351v-351h-351zM117 2457v351h351v-351h-351zM2457 2457v351h351v-351h-351zM117 3042v351h351v-351h-351zM2457 3042v351h351v-351h-351zM117 3627v351h351v-351h-351zM2457 3627v351h351v-351h-351z" glyph-name="W" horiz-adv-x="3510" unicode="W"/>
<glyph d="M117 117v351h351v-351h-351zM1872 117v351h351v-351h-351zM117 702v351h351v-351h-351zM1872 702v351h351v-351h-351zM117 1287v351h351v-351h-351zM1872 1287v351h351v-351h-351zM702 1872v351h351v-351h-351zM1287 1872v351h351v-351h-351zM117 2457v351h351v-351h-351 zM1872 2457v351h351v-351h-351zM117 3042v351h351v-351h-351zM1872 3042v351h351v-351h-351zM117 3627v351h351v-351h-351zM1872 3627v351h351v-351h-351z" glyph-name="X" unicode="X"/>
<glyph d="M702 117v351h351v-351h-351zM1287 117v351h351v-351h-351zM1872 702v351h351v-351h-351zM1872 1287v351h351v-351h-351zM702 1872v351h351v-351h-351zM1287 1872v351h351v-351h-351zM1872 1872v351h351v-351h-351zM117 2457v351h351v-351h-351zM1872 2457v351h351v-351 h-351zM117 3042v351h351v-351h-351zM1872 3042v351h351v-351h-351zM117 3627v351h351v-351h-351zM1872 3627v351h351v-351h-351z" glyph-name="Y" unicode="Y"/>
<glyph d="M117 117v351h351v-351h-351zM702 117v351h351v-351h-351zM1287 117v351h351v-351h-351zM1872 117v351h351v-351h-351zM117 702v351h351v-351h-351zM117 1287v351h351v-351h-351zM702 1872v351h351v-351h-351zM1287 1872v351h351v-351h-351zM1872 2457v351h351v-351h-351z M1872 3042v351h351v-351h-351zM117 3627v351h351v-351h-351zM702 3627v351h351v-351h-351zM1287 3627v351h351v-351h-351zM1872 3627v351h351v-351h-351z" glyph-name="Z" unicode="Z"/>
<glyph d="M702 117v351h351v-351h-351zM1287 117v351h351v-351h-351zM702 702v351h351v-351h-351zM702 1287v351h351v-351h-351zM702 1872v351h351v-351h-351zM702 2457v351h351v-351h-351zM702 3042v351h351v-351h-351zM702 3627v351h351v-351h-351zM1287 3627v351h351v-351h-351z " glyph-name="bracketleft" horiz-adv-x="2340" unicode="["/>
<glyph d="M1872 117v351h351v-351h-351zM1872 702v351h351v-351h-351zM1287 1287v351h351v-351h-351zM1287 1872v351h351v-351h-351zM702 2457v351h351v-351h-351zM702 3042v351h351v-351h-351zM117 3627v351h351v-351h-351z" glyph-name="backslash" unicode="\"/>
<glyph d="M702 117v351h351v-351h-351zM1287 117v351h351v-351h-351zM1287 702v351h351v-351h-351zM1287 1287v351h351v-351h-351zM1287 1872v351h351v-351h-351zM1287 2457v351h351v-351h-351zM1287 3042v351h351v-351h-351zM702 3627v351h351v-351h-351zM1287 3627v351h351v-351 h-351z" glyph-name="bracketright" horiz-adv-x="2340" unicode="]"/>
<glyph d="M117 2457v351h351v-351h-351zM1287 2457v351h351v-351h-351zM117 3042v351h351v-351h-351zM1287 3042v351h351v-351h-351zM702 3627v351h351v-351h-351z" glyph-name="asciicircum" horiz-adv-x="2340" unicode="^"/>
<glyph d="M117 117v351h351v-351h-351zM702 117v351h351v-351h-351zM1287 117v351h351v-351h-351zM1872 117v351h351v-351h-351z" glyph-name="underscore" unicode="_"/>
<glyph d="M702 3042v351h351v-351h-351zM117 3627v351h351v-351h-351z" glyph-name="grave" horiz-adv-x="1755" unicode="`"/>
<glyph d="M117 117v351h351v-351h-351zM1872 117v351h351v-351h-351zM117 702v351h351v-351h-351zM1872 702v351h351v-351h-351zM117 1287v351h351v-351h-351zM1872 1287v351h351v-351h-351zM117 1872v351h351v-351h-351zM702 1872v351h351v-351h-351zM1287 1872v351h351v-351h-351 zM1872 1872v351h351v-351h-351zM117 2457v351h351v-351h-351zM1872 2457v351h351v-351h-351zM117 3042v351h351v-351h-351zM1872 3042v351h351v-351h-351zM702 3627v351h351v-351h-351zM1287 3627v351h351v-351h-351z" glyph-name="a" unicode="a"/>
<glyph d="M117 117v351h351v-351h-351zM702 117v351h351v-351h-351zM1287 117v351h351v-351h-351zM117 702v351h351v-351h-351zM1872 702v351h351v-351h-351zM117 1287v351h351v-351h-351zM1872 1287v351h351v-351h-351zM117 1872v351h351v-351h-351zM702 1872v351h351v-351h-351z M1287 1872v351h351v-351h-351zM117 2457v351h351v-351h-351zM1872 2457v351h351v-351h-351zM117 3042v351h351v-351h-351zM1872 3042v351h351v-351h-351zM117 3627v351h351v-351h-351zM702 3627v351h351v-351h-351zM1287 3627v351h351v-351h-351z" glyph-name="b" unicode="b"/>
<glyph d="M702 117v351h351v-351h-351zM1287 117v351h351v-351h-351zM117 702v351h351v-351h-351zM1872 702v351h351v-351h-351zM117 1287v351h351v-351h-351zM117 1872v351h351v-351h-351zM117 2457v351h351v-351h-351zM117 3042v351h351v-351h-351zM1872 3042v351h351v-351h-351z M702 3627v351h351v-351h-351zM1287 3627v351h351v-351h-351z" glyph-name="c" unicode="c"/>
<glyph d="M117 117v351h351v-351h-351zM702 117v351h351v-351h-351zM1287 117v351h351v-351h-351zM117 702v351h351v-351h-351zM1872 702v351h351v-351h-351zM117 1287v351h351v-351h-351zM1872 1287v351h351v-351h-351zM117 1872v351h351v-351h-351zM1872 1872v351h351v-351h-351z M117 2457v351h351v-351h-351zM1872 2457v351h351v-351h-351zM117 3042v351h351v-351h-351zM1872 3042v351h351v-351h-351zM117 3627v351h351v-351h-351zM702 3627v351h351v-351h-351zM1287 3627v351h351v-351h-351z" glyph-name="d" unicode="d"/>
<glyph d="M117 117v351h351v-351h-351zM702 117v351h351v-351h-351zM1287 117v351h351v-351h-351zM1872 117v351h351v-351h-351zM117 702v351h351v-351h-351zM117 1287v351h351v-351h-351zM117 1872v351h351v-351h-351zM702 1872v351h351v-351h-351zM1287 1872v351h351v-351h-351z M1872 1872v351h351v-351h-351zM117 2457v351h351v-351h-351zM117 3042v351h351v-351h-351zM117 3627v351h351v-351h-351zM702 3627v351h351v-351h-351zM1287 3627v351h351v-351h-351zM1872 3627v351h351v-351h-351z" glyph-name="e" unicode="e"/>
<glyph d="M117 117v351h351v-351h-351zM117 702v351h351v-351h-351zM117 1287v351h351v-351h-351zM117 1872v351h351v-351h-351zM702 1872v351h351v-351h-351zM1287 1872v351h351v-351h-351zM1872 1872v351h351v-351h-351zM117 2457v351h351v-351h-351zM117 3042v351h351v-351h-351 zM117 3627v351h351v-351h-351zM702 3627v351h351v-351h-351zM1287 3627v351h351v-351h-351zM1872 3627v351h351v-351h-351z" glyph-name="f" unicode="f"/>
<glyph d="M702 117v351h351v-351h-351zM1287 117v351h351v-351h-351zM117 702v351h351v-351h-351zM1872 702v351h351v-351h-351zM117 1287v351h351v-351h-351zM1872 1287v351h351v-351h-351zM117 1872v351h351v-351h-351zM1287 1872v351h351v-351h-351zM1872 1872v351h351v-351 h-351zM117 2457v351h351v-351h-351zM117 3042v351h351v-351h-351zM1872 3042v351h351v-351h-351zM702 3627v351h351v-351h-351zM1287 3627v351h351v-351h-351z" glyph-name="g" unicode="g"/>
<glyph d="M117 117v351h351v-351h-351zM1872 117v351h351v-351h-351zM117 702v351h351v-351h-351zM1872 702v351h351v-351h-351zM117 1287v351h351v-351h-351zM1872 1287v351h351v-351h-351zM117 1872v351h351v-351h-351zM702 1872v351h351v-351h-351zM1287 1872v351h351v-351h-351 zM1872 1872v351h351v-351h-351zM117 2457v351h351v-351h-351zM1872 2457v351h351v-351h-351zM117 3042v351h351v-351h-351zM1872 3042v351h351v-351h-351zM117 3627v351h351v-351h-351zM1872 3627v351h351v-351h-351z" glyph-name="h" unicode="h"/>
<glyph d="M702 117v351h351v-351h-351zM1287 117v351h351v-351h-351zM1872 117v351h351v-351h-351zM1287 702v351h351v-351h-351zM1287 1287v351h351v-351h-351zM1287 1872v351h351v-351h-351zM1287 2457v351h351v-351h-351zM1287 3042v351h351v-351h-351zM702 3627v351h351v-351 h-351zM1287 3627v351h351v-351h-351zM1872 3627v351h351v-351h-351z" glyph-name="i" unicode="i"/>
<glyph d="M702 117v351h351v-351h-351zM1287 117v351h351v-351h-351zM117 702v351h351v-351h-351zM1872 702v351h351v-351h-351zM1872 1287v351h351v-351h-351zM1872 1872v351h351v-351h-351zM1872 2457v351h351v-351h-351zM1872 3042v351h351v-351h-351zM702 3627v351h351v-351 h-351zM1287 3627v351h351v-351h-351zM1872 3627v351h351v-351h-351z" glyph-name="j" unicode="j"/>
<glyph d="M117 117v351h351v-351h-351zM1872 117v351h351v-351h-351zM117 702v351h351v-351h-351zM1872 702v351h351v-351h-351zM117 1287v351h351v-351h-351zM1872 1287v351h351v-351h-351zM117 1872v351h351v-351h-351zM702 1872v351h351v-351h-351zM1287 1872v351h351v-351h-351 zM117 2457v351h351v-351h-351zM1872 2457v351h351v-351h-351zM117 3042v351h351v-351h-351zM1872 3042v351h351v-351h-351zM117 3627v351h351v-351h-351zM1872 3627v351h351v-351h-351z" glyph-name="k" unicode="k"/>
<glyph d="M117 117v351h351v-351h-351zM702 117v351h351v-351h-351zM1287 117v351h351v-351h-351zM1872 117v351h351v-351h-351zM117 702v351h351v-351h-351zM117 1287v351h351v-351h-351zM117 1872v351h351v-351h-351zM117 2457v351h351v-351h-351zM117 3042v351h351v-351h-351z M117 3627v351h351v-351h-351z" glyph-name="l" unicode="l"/>
<glyph d="M117 117v351h351v-351h-351zM2457 117v351h351v-351h-351zM117 702v351h351v-351h-351zM2457 702v351h351v-351h-351zM117 1287v351h351v-351h-351zM2457 1287v351h351v-351h-351zM117 1872v351h351v-351h-351zM2457 1872v351h351v-351h-351zM117 2457v351h351v-351h-351 zM1287 2457v351h351v-351h-351zM2457 2457v351h351v-351h-351zM117 3042v351h351v-351h-351zM702 3042v351h351v-351h-351zM1872 3042v351h351v-351h-351zM2457 3042v351h351v-351h-351zM117 3627v351h351v-351h-351zM2457 3627v351h351v-351h-351z" glyph-name="m" horiz-adv-x="3510" unicode="m"/>
<glyph d="M117 117v351h351v-351h-351zM1872 117v351h351v-351h-351zM117 702v351h351v-351h-351zM1872 702v351h351v-351h-351zM117 1287v351h351v-351h-351zM1872 1287v351h351v-351h-351zM117 1872v351h351v-351h-351zM1287 1872v351h351v-351h-351zM1872 1872v351h351v-351 h-351zM117 2457v351h351v-351h-351zM702 2457v351h351v-351h-351zM1872 2457v351h351v-351h-351zM117 3042v351h351v-351h-351zM1872 3042v351h351v-351h-351zM117 3627v351h351v-351h-351zM1872 3627v351h351v-351h-351z" glyph-name="n" unicode="n"/>
<glyph d="M702 117v351h351v-351h-351zM1287 117v351h351v-351h-351zM117 702v351h351v-351h-351zM1872 702v351h351v-351h-351zM117 1287v351h351v-351h-351zM1872 1287v351h351v-351h-351zM117 1872v351h351v-351h-351zM1872 1872v351h351v-351h-351zM117 2457v351h351v-351h-351 zM1872 2457v351h351v-351h-351zM117 3042v351h351v-351h-351zM1872 3042v351h351v-351h-351zM702 3627v351h351v-351h-351zM1287 3627v351h351v-351h-351z" glyph-name="o" unicode="o"/>
<glyph d="M117 117v351h351v-351h-351zM117 702v351h351v-351h-351zM117 1287v351h351v-351h-351zM117 1872v351h351v-351h-351zM702 1872v351h351v-351h-351zM1287 1872v351h351v-351h-351zM117 2457v351h351v-351h-351zM1872 2457v351h351v-351h-351zM117 3042v351h351v-351h-351 zM1872 3042v351h351v-351h-351zM117 3627v351h351v-351h-351zM702 3627v351h351v-351h-351zM1287 3627v351h351v-351h-351z" glyph-name="p" unicode="p"/>
<glyph d="M702 117v351h351v-351h-351zM1872 117v351h351v-351h-351zM117 702v351h351v-351h-351zM1287 702v351h351v-351h-351zM117 1287v351h351v-351h-351zM1872 1287v351h351v-351h-351zM117 1872v351h351v-351h-351zM1872 1872v351h351v-351h-351zM117 2457v351h351v-351h-351 zM1872 2457v351h351v-351h-351zM117 3042v351h351v-351h-351zM1872 3042v351h351v-351h-351zM702 3627v351h351v-351h-351zM1287 3627v351h351v-351h-351z" glyph-name="q" unicode="q"/>
<glyph d="M117 117v351h351v-351h-351zM1872 117v351h351v-351h-351zM117 702v351h351v-351h-351zM1872 702v351h351v-351h-351zM117 1287v351h351v-351h-351zM1872 1287v351h351v-351h-351zM117 1872v351h351v-351h-351zM702 1872v351h351v-351h-351zM1287 1872v351h351v-351h-351 zM117 2457v351h351v-351h-351zM1872 2457v351h351v-351h-351zM117 3042v351h351v-351h-351zM1872 3042v351h351v-351h-351zM117 3627v351h351v-351h-351zM702 3627v351h351v-351h-351zM1287 3627v351h351v-351h-351z" glyph-name="r" unicode="r"/>
<glyph d="M702 117v351h351v-351h-351zM1287 117v351h351v-351h-351zM117 702v351h351v-351h-351zM1872 702v351h351v-351h-351zM1872 1287v351h351v-351h-351zM702 1872v351h351v-351h-351zM1287 1872v351h351v-351h-351zM117 2457v351h351v-351h-351zM117 3042v351h351v-351h-351 zM1872 3042v351h351v-351h-351zM702 3627v351h351v-351h-351zM1287 3627v351h351v-351h-351z" glyph-name="s" unicode="s"/>
<glyph d="M1287 117v351h351v-351h-351zM1287 702v351h351v-351h-351zM1287 1287v351h351v-351h-351zM1287 1872v351h351v-351h-351zM1287 2457v351h351v-351h-351zM1287 3042v351h351v-351h-351zM702 3627v351h351v-351h-351zM1287 3627v351h351v-351h-351zM1872 3627v351h351 v-351h-351z" glyph-name="t" unicode="t"/>
<glyph d="M702 117v351h351v-351h-351zM1287 117v351h351v-351h-351zM117 702v351h351v-351h-351zM1872 702v351h351v-351h-351zM117 1287v351h351v-351h-351zM1872 1287v351h351v-351h-351zM117 1872v351h351v-351h-351zM1872 1872v351h351v-351h-351zM117 2457v351h351v-351h-351 zM1872 2457v351h351v-351h-351zM117 3042v351h351v-351h-351zM1872 3042v351h351v-351h-351zM117 3627v351h351v-351h-351zM1872 3627v351h351v-351h-351z" glyph-name="u" unicode="u"/>
<glyph d="M702 117v351h351v-351h-351zM117 702v351h351v-351h-351zM1287 702v351h351v-351h-351zM117 1287v351h351v-351h-351zM1872 1287v351h351v-351h-351zM117 1872v351h351v-351h-351zM1872 1872v351h351v-351h-351zM117 2457v351h351v-351h-351zM1872 2457v351h351v-351 h-351zM117 3042v351h351v-351h-351zM1872 3042v351h351v-351h-351zM117 3627v351h351v-351h-351zM1872 3627v351h351v-351h-351z" glyph-name="v" unicode="v"/>
<glyph d="M117 117v351h351v-351h-351zM2457 117v351h351v-351h-351zM117 702v351h351v-351h-351zM702 702v351h351v-351h-351zM1872 702v351h351v-351h-351zM2457 702v351h351v-351h-351zM117 1287v351h351v-351h-351zM1287 1287v351h351v-351h-351zM2457 1287v351h351v-351h-351z M117 1872v351h351v-351h-351zM2457 1872v351h351v-351h-351zM117 2457v351h351v-351h-351zM2457 2457v351h351v-351h-351zM117 3042v351h351v-351h-351zM2457 3042v351h351v-351h-351zM117 3627v351h351v-351h-351zM2457 3627v351h351v-351h-351z" glyph-name="w" horiz-adv-x="3510" unicode="w"/>
<glyph d="M117 117v351h351v-351h-351zM1872 117v351h351v-351h-351zM117 702v351h351v-351h-351zM1872 702v351h351v-351h-351zM117 1287v351h351v-351h-351zM1872 1287v351h351v-351h-351zM702 1872v351h351v-351h-351zM1287 1872v351h351v-351h-351zM117 2457v351h351v-351h-351 zM1872 2457v351h351v-351h-351zM117 3042v351h351v-351h-351zM1872 3042v351h351v-351h-351zM117 3627v351h351v-351h-351zM1872 3627v351h351v-351h-351z" glyph-name="x" unicode="x"/>
<glyph d="M702 117v351h351v-351h-351zM1287 117v351h351v-351h-351zM1872 702v351h351v-351h-351zM1872 1287v351h351v-351h-351zM702 1872v351h351v-351h-351zM1287 1872v351h351v-351h-351zM1872 1872v351h351v-351h-351zM117 2457v351h351v-351h-351zM1872 2457v351h351v-351 h-351zM117 3042v351h351v-351h-351zM1872 3042v351h351v-351h-351zM117 3627v351h351v-351h-351zM1872 3627v351h351v-351h-351z" glyph-name="y" unicode="y"/>
<glyph d="M117 117v351h351v-351h-351zM702 117v351h351v-351h-351zM1287 117v351h351v-351h-351zM1872 117v351h351v-351h-351zM117 702v351h351v-351h-351zM117 1287v351h351v-351h-351zM702 1872v351h351v-351h-351zM1287 1872v351h351v-351h-351zM1872 2457v351h351v-351h-351z M1872 3042v351h351v-351h-351zM117 3627v351h351v-351h-351zM702 3627v351h351v-351h-351zM1287 3627v351h351v-351h-351zM1872 3627v351h351v-351h-351z" glyph-name="z" unicode="z"/>
<glyph d="M702 117v351h351v-351h-351zM1287 117v351h351v-351h-351zM702 702v351h351v-351h-351zM702 1287v351h351v-351h-351zM117 1872v351h351v-351h-351zM702 1872v351h351v-351h-351zM702 2457v351h351v-351h-351zM702 3042v351h351v-351h-351zM702 3627v351h351v-351h-351z M1287 3627v351h351v-351h-351z" glyph-name="braceleft" horiz-adv-x="2340" unicode="{"/>
<glyph d="M1287 117v351h351v-351h-351zM1287 702v351h351v-351h-351zM1287 1287v351h351v-351h-351zM1287 1872v351h351v-351h-351zM1287 2457v351h351v-351h-351zM1287 3042v351h351v-351h-351zM1287 3627v351h351v-351h-351z" glyph-name="bar" horiz-adv-x="2340" unicode="|"/>
<glyph d="M702 117v351h351v-351h-351zM1287 117v351h351v-351h-351zM1287 702v351h351v-351h-351zM1287 1287v351h351v-351h-351zM1287 1872v351h351v-351h-351zM1872 1872v351h351v-351h-351zM1287 2457v351h351v-351h-351zM1287 3042v351h351v-351h-351zM702 3627v351h351v-351 h-351zM1287 3627v351h351v-351h-351z" glyph-name="braceright" unicode="}"/>
<glyph d="M117 1872v351h351v-351h-351zM1287 1872v351h351v-351h-351zM702 2457v351h351v-351h-351zM1872 2457v351h351v-351h-351z" glyph-name="asciitilde" unicode="~"/>
<glyph d="M117 117v351h351v-351h-351zM117 702v351h351v-351h-351zM117 1287v351h351v-351h-351zM117 1872v351h351v-351h-351zM117 2457v351h351v-351h-351zM117 3627v351h351v-351h-351z" glyph-name="exclamdown" horiz-adv-x="1170" unicode="¡"/>
<glyph d="M1287 117v351h351v-351h-351zM702 702v351h351v-351h-351zM1287 702v351h351v-351h-351zM1872 702v351h351v-351h-351zM117 1287v351h351v-351h-351zM1287 1287v351h351v-351h-351zM117 1872v351h351v-351h-351zM1287 1872v351h351v-351h-351zM117 2457v351h351v-351 h-351zM1287 2457v351h351v-351h-351zM702 3042v351h351v-351h-351zM1287 3042v351h351v-351h-351zM1872 3042v351h351v-351h-351zM1287 3627v351h351v-351h-351z" glyph-name="cent" unicode="¢"/>
<glyph d="M117 117v351h351v-351h-351zM702 117v351h351v-351h-351zM1287 117v351h351v-351h-351zM1872 117v351h351v-351h-351zM117 702v351h351v-351h-351zM702 1287v351h351v-351h-351zM117 1872v351h351v-351h-351zM702 1872v351h351v-351h-351zM1287 1872v351h351v-351h-351z M702 2457v351h351v-351h-351zM702 3042v351h351v-351h-351zM1872 3042v351h351v-351h-351zM1287 3627v351h351v-351h-351z" glyph-name="sterling" unicode="£"/>
<glyph d="M117 117v351h351v-351h-351zM702 117v351h351v-351h-351zM1287 117v351h351v-351h-351zM1872 117v351h351v-351h-351zM117 702v351h351v-351h-351zM702 702v351h351v-351h-351zM1287 702v351h351v-351h-351zM1872 702v351h351v-351h-351zM117 1287v351h351v-351h-351z M702 1287v351h351v-351h-351zM1287 1287v351h351v-351h-351zM1872 1287v351h351v-351h-351zM117 1872v351h351v-351h-351zM702 1872v351h351v-351h-351zM1287 1872v351h351v-351h-351zM1872 1872v351h351v-351h-351zM117 2457v351h351v-351h-351zM702 2457v351h351v-351 h-351zM1287 2457v351h351v-351h-351zM1872 2457v351h351v-351h-351zM117 3042v351h351v-351h-351zM702 3042v351h351v-351h-351zM1287 3042v351h351v-351h-351zM1872 3042v351h351v-351h-351zM117 3627v351h351v-351h-351zM702 3627v351h351v-351h-351zM1287 3627v351h351 v-351h-351zM1872 3627v351h351v-351h-351z" glyph-name="currency" unicode="¤"/>
<glyph d="M1287 117v351h351v-351h-351zM702 702v351h351v-351h-351zM1287 702v351h351v-351h-351zM1872 702v351h351v-351h-351zM1287 1287v351h351v-351h-351zM702 1872v351h351v-351h-351zM1287 1872v351h351v-351h-351zM117 2457v351h351v-351h-351zM1872 2457v351h351v-351 h-351zM117 3042v351h351v-351h-351zM1872 3042v351h351v-351h-351zM117 3627v351h351v-351h-351zM1872 3627v351h351v-351h-351z" glyph-name="yen" unicode="¥"/>
<glyph d="M117 117v351h351v-351h-351zM117 702v351h351v-351h-351zM117 1287v351h351v-351h-351zM117 2457v351h351v-351h-351zM117 3042v351h351v-351h-351zM117 3627v351h351v-351h-351z" glyph-name="brokenbar" horiz-adv-x="1170" unicode="¦"/>
<glyph d="M117 117v351h351v-351h-351zM702 117v351h351v-351h-351zM1287 117v351h351v-351h-351zM1872 117v351h351v-351h-351zM117 702v351h351v-351h-351zM702 702v351h351v-351h-351zM1287 702v351h351v-351h-351zM1872 702v351h351v-351h-351zM117 1287v351h351v-351h-351z M702 1287v351h351v-351h-351zM1287 1287v351h351v-351h-351zM1872 1287v351h351v-351h-351zM117 1872v351h351v-351h-351zM702 1872v351h351v-351h-351zM1287 1872v351h351v-351h-351zM1872 1872v351h351v-351h-351zM117 2457v351h351v-351h-351zM702 2457v351h351v-351 h-351zM1287 2457v351h351v-351h-351zM1872 2457v351h351v-351h-351zM117 3042v351h351v-351h-351zM702 3042v351h351v-351h-351zM1287 3042v351h351v-351h-351zM1872 3042v351h351v-351h-351zM117 3627v351h351v-351h-351zM702 3627v351h351v-351h-351zM1287 3627v351h351 v-351h-351zM1872 3627v351h351v-351h-351z" glyph-name="section" unicode="§"/>
<glyph d="M117 3627v351h351v-351h-351zM1287 3627v351h351v-351h-351z" glyph-name="dieresis" horiz-adv-x="2340" unicode="¨"/>
<glyph d="M117 117v351h351v-351h-351zM702 117v351h351v-351h-351zM1287 117v351h351v-351h-351zM1872 117v351h351v-351h-351zM117 702v351h351v-351h-351zM702 702v351h351v-351h-351zM1287 702v351h351v-351h-351zM1872 702v351h351v-351h-351zM117 1287v351h351v-351h-351z M702 1287v351h351v-351h-351zM1287 1287v351h351v-351h-351zM1872 1287v351h351v-351h-351zM117 1872v351h351v-351h-351zM702 1872v351h351v-351h-351zM1287 1872v351h351v-351h-351zM1872 1872v351h351v-351h-351zM117 2457v351h351v-351h-351zM702 2457v351h351v-351 h-351zM1287 2457v351h351v-351h-351zM1872 2457v351h351v-351h-351zM117 3042v351h351v-351h-351zM702 3042v351h351v-351h-351zM1287 3042v351h351v-351h-351zM1872 3042v351h351v-351h-351zM117 3627v351h351v-351h-351zM702 3627v351h351v-351h-351zM1287 3627v351h351 v-351h-351zM1872 3627v351h351v-351h-351z" glyph-name="copyright" unicode="©"/>
<glyph d="M117 1287v351h351v-351h-351zM702 1287v351h351v-351h-351zM1287 1287v351h351v-351h-351zM117 1872v351h351v-351h-351zM1287 1872v351h351v-351h-351zM117 2457v351h351v-351h-351zM702 2457v351h351v-351h-351zM1287 2457v351h351v-351h-351zM1287 3042v351h351v-351 h-351zM117 3627v351h351v-351h-351zM702 3627v351h351v-351h-351zM1287 3627v351h351v-351h-351z" glyph-name="ordfeminine" horiz-adv-x="2340" unicode="ª"/>
<glyph d="M702 1287v351h351v-351h-351zM1872 1287v351h351v-351h-351zM117 1872v351h351v-351h-351zM1287 1872v351h351v-351h-351zM702 2457v351h351v-351h-351zM1872 2457v351h351v-351h-351z" glyph-name="guillemotleft" unicode="«"/>
<glyph d="M1872 1287v351h351v-351h-351zM117 1872v351h351v-351h-351zM702 1872v351h351v-351h-351zM1287 1872v351h351v-351h-351zM1872 1872v351h351v-351h-351z" glyph-name="logicalnot" unicode="¬"/>
<glyph d="M117 1872v351h351v-351h-351zM702 1872v351h351v-351h-351zM1287 1872v351h351v-351h-351zM1872 1872v351h351v-351h-351z" glyph-name="uni00AD" unicode="­"/>
<glyph d="M117 117v351h351v-351h-351zM702 117v351h351v-351h-351zM1287 117v351h351v-351h-351zM1872 117v351h351v-351h-351zM117 702v351h351v-351h-351zM702 702v351h351v-351h-351zM1287 702v351h351v-351h-351zM1872 702v351h351v-351h-351zM117 1287v351h351v-351h-351z M702 1287v351h351v-351h-351zM1287 1287v351h351v-351h-351zM1872 1287v351h351v-351h-351zM117 1872v351h351v-351h-351zM702 1872v351h351v-351h-351zM1287 1872v351h351v-351h-351zM1872 1872v351h351v-351h-351zM117 2457v351h351v-351h-351zM702 2457v351h351v-351 h-351zM1287 2457v351h351v-351h-351zM1872 2457v351h351v-351h-351zM117 3042v351h351v-351h-351zM702 3042v351h351v-351h-351zM1287 3042v351h351v-351h-351zM1872 3042v351h351v-351h-351zM117 3627v351h351v-351h-351zM702 3627v351h351v-351h-351zM1287 3627v351h351 v-351h-351zM1872 3627v351h351v-351h-351z" glyph-name="registered" unicode="®"/>
<glyph d="M117 3627v351h351v-351h-351zM702 3627v351h351v-351h-351zM1287 3627v351h351v-351h-351zM1872 3627v351h351v-351h-351z" glyph-name="macron" unicode="¯"/>
<glyph d="M702 1872v351h351v-351h-351zM1287 1872v351h351v-351h-351zM117 2457v351h351v-351h-351zM1872 2457v351h351v-351h-351zM117 3042v351h351v-351h-351zM1872 3042v351h351v-351h-351zM702 3627v351h351v-351h-351zM1287 3627v351h351v-351h-351z" glyph-name="degree" unicode="°"/>
<glyph d="M117 117v351h351v-351h-351zM702 117v351h351v-351h-351zM1287 117v351h351v-351h-351zM1872 117v351h351v-351h-351zM2457 117v351h351v-351h-351zM1287 1287v351h351v-351h-351zM1287 1872v351h351v-351h-351zM117 2457v351h351v-351h-351zM702 2457v351h351v-351h-351 zM1287 2457v351h351v-351h-351zM1872 2457v351h351v-351h-351zM2457 2457v351h351v-351h-351zM1287 3042v351h351v-351h-351zM1287 3627v351h351v-351h-351z" glyph-name="plusminus" horiz-adv-x="3510" unicode="±"/>
<glyph d="M117 1287v351h351v-351h-351zM702 1287v351h351v-351h-351zM1287 1287v351h351v-351h-351zM117 1872v351h351v-351h-351zM117 2457v351h351v-351h-351zM702 2457v351h351v-351h-351zM1287 2457v351h351v-351h-351zM1287 3042v351h351v-351h-351zM117 3627v351h351v-351 h-351zM702 3627v351h351v-351h-351zM1287 3627v351h351v-351h-351z" glyph-name="uni00B2" horiz-adv-x="2340" unicode="²"/>
<glyph d="M117 1287v351h351v-351h-351zM702 1287v351h351v-351h-351zM1287 1287v351h351v-351h-351zM1287 1872v351h351v-351h-351zM117 2457v351h351v-351h-351zM702 2457v351h351v-351h-351zM1287 2457v351h351v-351h-351zM1287 3042v351h351v-351h-351zM117 3627v351h351v-351 h-351zM702 3627v351h351v-351h-351zM1287 3627v351h351v-351h-351z" glyph-name="uni00B3" horiz-adv-x="2340" unicode="³"/>
<glyph d="M117 3042v351h351v-351h-351zM702 3627v351h351v-351h-351z" glyph-name="acute" horiz-adv-x="1755" unicode="´"/>
<glyph d="M117 117v351h351v-351h-351zM702 117v351h351v-351h-351zM1287 117v351h351v-351h-351zM117 702v351h351v-351h-351zM1872 702v351h351v-351h-351zM117 1287v351h351v-351h-351zM1872 1287v351h351v-351h-351zM117 1872v351h351v-351h-351zM1872 1872v351h351v-351h-351z M117 2457v351h351v-351h-351zM1872 2457v351h351v-351h-351z" glyph-name="mu" unicode="µ"/>
<glyph d="M702 117v351h351v-351h-351zM1872 117v351h351v-351h-351zM702 702v351h351v-351h-351zM1872 702v351h351v-351h-351zM702 1287v351h351v-351h-351zM1872 1287v351h351v-351h-351zM702 1872v351h351v-351h-351zM1872 1872v351h351v-351h-351zM117 2457v351h351v-351h-351 zM702 2457v351h351v-351h-351zM1872 2457v351h351v-351h-351zM117 3042v351h351v-351h-351zM702 3042v351h351v-351h-351zM1872 3042v351h351v-351h-351zM702 3627v351h351v-351h-351zM1287 3627v351h351v-351h-351zM1872 3627v351h351v-351h-351z" glyph-name="paragraph" unicode="¶"/>
<glyph d="M117 1872v351h351v-351h-351z" glyph-name="periodcentered" horiz-adv-x="1170" unicode="·"/>
<glyph d="M117 117v351h351v-351h-351zM702 702v351h351v-351h-351z" glyph-name="cedilla" horiz-adv-x="1755" unicode="¸"/>
<glyph d="M702 1287v351h351v-351h-351zM702 1872v351h351v-351h-351zM702 2457v351h351v-351h-351zM702 3042v351h351v-351h-351zM117 3627v351h351v-351h-351zM702 3627v351h351v-351h-351z" glyph-name="uni00B9" horiz-adv-x="1755" unicode="¹"/>
<glyph d="M702 1872v351h351v-351h-351zM1287 1872v351h351v-351h-351zM117 2457v351h351v-351h-351zM1872 2457v351h351v-351h-351zM117 3042v351h351v-351h-351zM1872 3042v351h351v-351h-351zM702 3627v351h351v-351h-351zM1287 3627v351h351v-351h-351z" glyph-name="ordmasculine" unicode="º"/>
<glyph d="M117 1287v351h351v-351h-351zM1287 1287v351h351v-351h-351zM702 1872v351h351v-351h-351zM1872 1872v351h351v-351h-351zM117 2457v351h351v-351h-351zM1287 2457v351h351v-351h-351z" glyph-name="guillemotright" unicode="»"/>
<glyph d="M117 117v351h351v-351h-351zM702 117v351h351v-351h-351zM1287 117v351h351v-351h-351zM1872 117v351h351v-351h-351zM117 702v351h351v-351h-351zM702 702v351h351v-351h-351zM1287 702v351h351v-351h-351zM1872 702v351h351v-351h-351zM117 1287v351h351v-351h-351z M702 1287v351h351v-351h-351zM1287 1287v351h351v-351h-351zM1872 1287v351h351v-351h-351zM117 1872v351h351v-351h-351zM702 1872v351h351v-351h-351zM1287 1872v351h351v-351h-351zM1872 1872v351h351v-351h-351zM117 2457v351h351v-351h-351zM702 2457v351h351v-351 h-351zM1287 2457v351h351v-351h-351zM1872 2457v351h351v-351h-351zM117 3042v351h351v-351h-351zM702 3042v351h351v-351h-351zM1287 3042v351h351v-351h-351zM1872 3042v351h351v-351h-351zM117 3627v351h351v-351h-351zM702 3627v351h351v-351h-351zM1287 3627v351h351 v-351h-351zM1872 3627v351h351v-351h-351z" glyph-name="onequarter" unicode="¼"/>
<glyph d="M117 117v351h351v-351h-351zM702 117v351h351v-351h-351zM1287 117v351h351v-351h-351zM1872 117v351h351v-351h-351zM117 702v351h351v-351h-351zM702 702v351h351v-351h-351zM1287 702v351h351v-351h-351zM1872 702v351h351v-351h-351zM117 1287v351h351v-351h-351z M702 1287v351h351v-351h-351zM1287 1287v351h351v-351h-351zM1872 1287v351h351v-351h-351zM117 1872v351h351v-351h-351zM702 1872v351h351v-351h-351zM1287 1872v351h351v-351h-351zM1872 1872v351h351v-351h-351zM117 2457v351h351v-351h-351zM702 2457v351h351v-351 h-351zM1287 2457v351h351v-351h-351zM1872 2457v351h351v-351h-351zM117 3042v351h351v-351h-351zM702 3042v351h351v-351h-351zM1287 3042v351h351v-351h-351zM1872 3042v351h351v-351h-351zM117 3627v351h351v-351h-351zM702 3627v351h351v-351h-351zM1287 3627v351h351 v-351h-351zM1872 3627v351h351v-351h-351z" glyph-name="onehalf" unicode="½"/>
<glyph d="M117 117v351h351v-351h-351zM702 117v351h351v-351h-351zM1287 117v351h351v-351h-351zM1872 117v351h351v-351h-351zM117 702v351h351v-351h-351zM702 702v351h351v-351h-351zM1287 702v351h351v-351h-351zM1872 702v351h351v-351h-351zM117 1287v351h351v-351h-351z M702 1287v351h351v-351h-351zM1287 1287v351h351v-351h-351zM1872 1287v351h351v-351h-351zM117 1872v351h351v-351h-351zM702 1872v351h351v-351h-351zM1287 1872v351h351v-351h-351zM1872 1872v351h351v-351h-351zM117 2457v351h351v-351h-351zM702 2457v351h351v-351 h-351zM1287 2457v351h351v-351h-351zM1872 2457v351h351v-351h-351zM117 3042v351h351v-351h-351zM702 3042v351h351v-351h-351zM1287 3042v351h351v-351h-351zM1872 3042v351h351v-351h-351zM117 3627v351h351v-351h-351zM702 3627v351h351v-351h-351zM1287 3627v351h351 v-351h-351zM1872 3627v351h351v-351h-351z" glyph-name="threequarters" unicode="¾"/>
<glyph d="M702 117v351h351v-351h-351zM1287 117v351h351v-351h-351zM117 702v351h351v-351h-351zM1872 702v351h351v-351h-351zM117 1287v351h351v-351h-351zM702 1872v351h351v-351h-351zM1287 1872v351h351v-351h-351zM1287 2457v351h351v-351h-351zM1287 3627v351h351v-351 h-351z" glyph-name="questiondown" unicode="¿"/>
<glyph d="M117 117v351h351v-351h-351zM1872 117v351h351v-351h-351zM117 702v351h351v-351h-351zM1872 702v351h351v-351h-351zM117 1287v351h351v-351h-351zM1872 1287v351h351v-351h-351zM117 1872v351h351v-351h-351zM702 1872v351h351v-351h-351zM1287 1872v351h351v-351h-351 zM1872 1872v351h351v-351h-351zM117 2457v351h351v-351h-351zM1872 2457v351h351v-351h-351zM117 3042v351h351v-351h-351zM1872 3042v351h351v-351h-351zM702 3627v351h351v-351h-351zM1287 3627v351h351v-351h-351z" glyph-name="Agrave" unicode="À"/>
<glyph d="M117 117v351h351v-351h-351zM1872 117v351h351v-351h-351zM117 702v351h351v-351h-351zM1872 702v351h351v-351h-351zM117 1287v351h351v-351h-351zM1872 1287v351h351v-351h-351zM117 1872v351h351v-351h-351zM702 1872v351h351v-351h-351zM1287 1872v351h351v-351h-351 zM1872 1872v351h351v-351h-351zM117 2457v351h351v-351h-351zM1872 2457v351h351v-351h-351zM117 3042v351h351v-351h-351zM1872 3042v351h351v-351h-351zM702 3627v351h351v-351h-351zM1287 3627v351h351v-351h-351z" glyph-name="Aacute" unicode="Á"/>
<glyph d="M117 117v351h351v-351h-351zM1872 117v351h351v-351h-351zM117 702v351h351v-351h-351zM1872 702v351h351v-351h-351zM117 1287v351h351v-351h-351zM1872 1287v351h351v-351h-351zM117 1872v351h351v-351h-351zM702 1872v351h351v-351h-351zM1287 1872v351h351v-351h-351 zM1872 1872v351h351v-351h-351zM117 2457v351h351v-351h-351zM1872 2457v351h351v-351h-351zM117 3042v351h351v-351h-351zM1872 3042v351h351v-351h-351zM702 3627v351h351v-351h-351zM1287 3627v351h351v-351h-351z" glyph-name="Acircumflex" unicode="Â"/>
<glyph d="M117 117v351h351v-351h-351zM1872 117v351h351v-351h-351zM117 702v351h351v-351h-351zM1872 702v351h351v-351h-351zM117 1287v351h351v-351h-351zM1872 1287v351h351v-351h-351zM117 1872v351h351v-351h-351zM702 1872v351h351v-351h-351zM1287 1872v351h351v-351h-351 zM1872 1872v351h351v-351h-351zM117 2457v351h351v-351h-351zM1872 2457v351h351v-351h-351zM117 3042v351h351v-351h-351zM1872 3042v351h351v-351h-351zM702 3627v351h351v-351h-351zM1287 3627v351h351v-351h-351z" glyph-name="Atilde" unicode="Ã"/>
<glyph d="M117 117v351h351v-351h-351zM1872 117v351h351v-351h-351zM117 702v351h351v-351h-351zM1872 702v351h351v-351h-351zM117 1287v351h351v-351h-351zM1872 1287v351h351v-351h-351zM117 1872v351h351v-351h-351zM702 1872v351h351v-351h-351zM1287 1872v351h351v-351h-351 zM1872 1872v351h351v-351h-351zM117 2457v351h351v-351h-351zM1872 2457v351h351v-351h-351zM117 3042v351h351v-351h-351zM1872 3042v351h351v-351h-351zM702 3627v351h351v-351h-351zM1287 3627v351h351v-351h-351z" glyph-name="Adieresis" unicode="Ä"/>
<glyph d="M117 117v351h351v-351h-351zM1872 117v351h351v-351h-351zM117 702v351h351v-351h-351zM1872 702v351h351v-351h-351zM117 1287v351h351v-351h-351zM1872 1287v351h351v-351h-351zM117 1872v351h351v-351h-351zM702 1872v351h351v-351h-351zM1287 1872v351h351v-351h-351 zM1872 1872v351h351v-351h-351zM117 2457v351h351v-351h-351zM1872 2457v351h351v-351h-351zM117 3042v351h351v-351h-351zM1872 3042v351h351v-351h-351zM702 3627v351h351v-351h-351zM1287 3627v351h351v-351h-351z" glyph-name="Aring" unicode="Å"/>
<glyph d="M117 117v351h351v-351h-351zM1287 117v351h351v-351h-351zM1872 117v351h351v-351h-351zM117 702v351h351v-351h-351zM1287 702v351h351v-351h-351zM117 1287v351h351v-351h-351zM1287 1287v351h351v-351h-351zM117 1872v351h351v-351h-351zM702 1872v351h351v-351h-351z M1287 1872v351h351v-351h-351zM1872 1872v351h351v-351h-351zM117 2457v351h351v-351h-351zM1287 2457v351h351v-351h-351zM117 3042v351h351v-351h-351zM1287 3042v351h351v-351h-351zM702 3627v351h351v-351h-351zM1287 3627v351h351v-351h-351zM1872 3627v351h351v-351 h-351z" glyph-name="AE" unicode="Æ"/>
<glyph d="M702 117v351h351v-351h-351zM1287 117v351h351v-351h-351zM117 702v351h351v-351h-351zM1872 702v351h351v-351h-351zM117 1287v351h351v-351h-351zM117 1872v351h351v-351h-351zM117 2457v351h351v-351h-351zM117 3042v351h351v-351h-351zM1872 3042v351h351v-351h-351z M702 3627v351h351v-351h-351zM1287 3627v351h351v-351h-351z" glyph-name="Ccedilla" unicode="Ç"/>
<glyph d="M117 117v351h351v-351h-351zM702 117v351h351v-351h-351zM1287 117v351h351v-351h-351zM1872 117v351h351v-351h-351zM117 702v351h351v-351h-351zM117 1287v351h351v-351h-351zM117 1872v351h351v-351h-351zM702 1872v351h351v-351h-351zM1287 1872v351h351v-351h-351z M1872 1872v351h351v-351h-351zM117 2457v351h351v-351h-351zM117 3042v351h351v-351h-351zM117 3627v351h351v-351h-351zM702 3627v351h351v-351h-351zM1287 3627v351h351v-351h-351zM1872 3627v351h351v-351h-351z" glyph-name="Egrave" unicode="È"/>
<glyph d="M117 117v351h351v-351h-351zM702 117v351h351v-351h-351zM1287 117v351h351v-351h-351zM1872 117v351h351v-351h-351zM117 702v351h351v-351h-351zM117 1287v351h351v-351h-351zM117 1872v351h351v-351h-351zM702 1872v351h351v-351h-351zM1287 1872v351h351v-351h-351z M1872 1872v351h351v-351h-351zM117 2457v351h351v-351h-351zM117 3042v351h351v-351h-351zM117 3627v351h351v-351h-351zM702 3627v351h351v-351h-351zM1287 3627v351h351v-351h-351zM1872 3627v351h351v-351h-351z" glyph-name="Eacute" unicode="É"/>
<glyph d="M117 117v351h351v-351h-351zM702 117v351h351v-351h-351zM1287 117v351h351v-351h-351zM1872 117v351h351v-351h-351zM117 702v351h351v-351h-351zM117 1287v351h351v-351h-351zM117 1872v351h351v-351h-351zM702 1872v351h351v-351h-351zM1287 1872v351h351v-351h-351z M1872 1872v351h351v-351h-351zM117 2457v351h351v-351h-351zM117 3042v351h351v-351h-351zM117 3627v351h351v-351h-351zM702 3627v351h351v-351h-351zM1287 3627v351h351v-351h-351zM1872 3627v351h351v-351h-351z" glyph-name="Ecircumflex" unicode="Ê"/>
<glyph d="M117 117v351h351v-351h-351zM702 117v351h351v-351h-351zM1287 117v351h351v-351h-351zM1872 117v351h351v-351h-351zM117 702v351h351v-351h-351zM117 1287v351h351v-351h-351zM117 1872v351h351v-351h-351zM702 1872v351h351v-351h-351zM1287 1872v351h351v-351h-351z M1872 1872v351h351v-351h-351zM117 2457v351h351v-351h-351zM117 3042v351h351v-351h-351zM117 3627v351h351v-351h-351zM702 3627v351h351v-351h-351zM1287 3627v351h351v-351h-351zM1872 3627v351h351v-351h-351z" glyph-name="Edieresis" unicode="Ë"/>
<glyph d="M702 117v351h351v-351h-351zM1287 117v351h351v-351h-351zM1872 117v351h351v-351h-351zM1287 702v351h351v-351h-351zM1287 1287v351h351v-351h-351zM1287 1872v351h351v-351h-351zM1287 2457v351h351v-351h-351zM1287 3042v351h351v-351h-351zM702 3627v351h351v-351 h-351zM1287 3627v351h351v-351h-351zM1872 3627v351h351v-351h-351z" glyph-name="Igrave" unicode="Ì"/>
<glyph d="M702 117v351h351v-351h-351zM1287 117v351h351v-351h-351zM1872 117v351h351v-351h-351zM1287 702v351h351v-351h-351zM1287 1287v351h351v-351h-351zM1287 1872v351h351v-351h-351zM1287 2457v351h351v-351h-351zM1287 3042v351h351v-351h-351zM702 3627v351h351v-351 h-351zM1287 3627v351h351v-351h-351zM1872 3627v351h351v-351h-351z" glyph-name="Iacute" unicode="Í"/>
<glyph d="M702 117v351h351v-351h-351zM1287 117v351h351v-351h-351zM1872 117v351h351v-351h-351zM1287 702v351h351v-351h-351zM1287 1287v351h351v-351h-351zM1287 1872v351h351v-351h-351zM1287 2457v351h351v-351h-351zM1287 3042v351h351v-351h-351zM702 3627v351h351v-351 h-351zM1287 3627v351h351v-351h-351zM1872 3627v351h351v-351h-351z" glyph-name="Icircumflex" unicode="Î"/>
<glyph d="M702 117v351h351v-351h-351zM1287 117v351h351v-351h-351zM1872 117v351h351v-351h-351zM1287 702v351h351v-351h-351zM1287 1287v351h351v-351h-351zM1287 1872v351h351v-351h-351zM1287 2457v351h351v-351h-351zM1287 3042v351h351v-351h-351zM702 3627v351h351v-351 h-351zM1287 3627v351h351v-351h-351zM1872 3627v351h351v-351h-351z" glyph-name="Idieresis" unicode="Ï"/>
<glyph d="M702 117v351h351v-351h-351zM1287 117v351h351v-351h-351zM702 702v351h351v-351h-351zM1872 702v351h351v-351h-351zM702 1287v351h351v-351h-351zM1872 1287v351h351v-351h-351zM117 1872v351h351v-351h-351zM702 1872v351h351v-351h-351zM1872 1872v351h351v-351h-351 zM702 2457v351h351v-351h-351zM1872 2457v351h351v-351h-351zM702 3042v351h351v-351h-351zM1872 3042v351h351v-351h-351zM702 3627v351h351v-351h-351zM1287 3627v351h351v-351h-351z" glyph-name="Eth" unicode="Ð"/>
<glyph d="M117 117v351h351v-351h-351zM1872 117v351h351v-351h-351zM117 702v351h351v-351h-351zM1872 702v351h351v-351h-351zM117 1287v351h351v-351h-351zM1872 1287v351h351v-351h-351zM117 1872v351h351v-351h-351zM1287 1872v351h351v-351h-351zM1872 1872v351h351v-351 h-351zM117 2457v351h351v-351h-351zM702 2457v351h351v-351h-351zM1872 2457v351h351v-351h-351zM117 3042v351h351v-351h-351zM1872 3042v351h351v-351h-351zM117 3627v351h351v-351h-351zM1872 3627v351h351v-351h-351z" glyph-name="Ntilde" unicode="Ñ"/>
<glyph d="M702 117v351h351v-351h-351zM1287 117v351h351v-351h-351zM117 702v351h351v-351h-351zM1872 702v351h351v-351h-351zM117 1287v351h351v-351h-351zM1872 1287v351h351v-351h-351zM117 1872v351h351v-351h-351zM1872 1872v351h351v-351h-351zM117 2457v351h351v-351h-351 zM1872 2457v351h351v-351h-351zM117 3042v351h351v-351h-351zM1872 3042v351h351v-351h-351zM702 3627v351h351v-351h-351zM1287 3627v351h351v-351h-351z" glyph-name="Ograve" unicode="Ò"/>
<glyph d="M702 117v351h351v-351h-351zM1287 117v351h351v-351h-351zM117 702v351h351v-351h-351zM1872 702v351h351v-351h-351zM117 1287v351h351v-351h-351zM1872 1287v351h351v-351h-351zM117 1872v351h351v-351h-351zM1872 1872v351h351v-351h-351zM117 2457v351h351v-351h-351 zM1872 2457v351h351v-351h-351zM117 3042v351h351v-351h-351zM1872 3042v351h351v-351h-351zM702 3627v351h351v-351h-351zM1287 3627v351h351v-351h-351z" glyph-name="Oacute" unicode="Ó"/>
<glyph d="M702 117v351h351v-351h-351zM1287 117v351h351v-351h-351zM117 702v351h351v-351h-351zM1872 702v351h351v-351h-351zM117 1287v351h351v-351h-351zM1872 1287v351h351v-351h-351zM117 1872v351h351v-351h-351zM1872 1872v351h351v-351h-351zM117 2457v351h351v-351h-351 zM1872 2457v351h351v-351h-351zM117 3042v351h351v-351h-351zM1872 3042v351h351v-351h-351zM702 3627v351h351v-351h-351zM1287 3627v351h351v-351h-351z" glyph-name="Ocircumflex" unicode="Ô"/>
<glyph d="M702 117v351h351v-351h-351zM1287 117v351h351v-351h-351zM117 702v351h351v-351h-351zM1872 702v351h351v-351h-351zM117 1287v351h351v-351h-351zM1872 1287v351h351v-351h-351zM117 1872v351h351v-351h-351zM1872 1872v351h351v-351h-351zM117 2457v351h351v-351h-351 zM1872 2457v351h351v-351h-351zM117 3042v351h351v-351h-351zM1872 3042v351h351v-351h-351zM702 3627v351h351v-351h-351zM1287 3627v351h351v-351h-351z" glyph-name="Otilde" unicode="Õ"/>
<glyph d="M702 117v351h351v-351h-351zM1287 117v351h351v-351h-351zM117 702v351h351v-351h-351zM1872 702v351h351v-351h-351zM117 1287v351h351v-351h-351zM1872 1287v351h351v-351h-351zM117 1872v351h351v-351h-351zM1872 1872v351h351v-351h-351zM117 2457v351h351v-351h-351 zM1872 2457v351h351v-351h-351zM117 3042v351h351v-351h-351zM1872 3042v351h351v-351h-351zM702 3627v351h351v-351h-351zM1287 3627v351h351v-351h-351z" glyph-name="Odieresis" unicode="Ö"/>
<glyph d="M117 702v351h351v-351h-351zM1872 702v351h351v-351h-351zM117 1287v351h351v-351h-351zM1872 1287v351h351v-351h-351zM702 1872v351h351v-351h-351zM1287 1872v351h351v-351h-351zM117 2457v351h351v-351h-351zM1872 2457v351h351v-351h-351zM117 3042v351h351v-351 h-351zM1872 3042v351h351v-351h-351z" glyph-name="multiply" unicode="×"/>
<glyph d="M702 117v351h351v-351h-351zM1287 117v351h351v-351h-351zM117 702v351h351v-351h-351zM1872 702v351h351v-351h-351zM117 1287v351h351v-351h-351zM1872 1287v351h351v-351h-351zM117 1872v351h351v-351h-351zM1872 1872v351h351v-351h-351zM117 2457v351h351v-351h-351 zM1872 2457v351h351v-351h-351zM117 3042v351h351v-351h-351zM1872 3042v351h351v-351h-351zM702 3627v351h351v-351h-351zM1287 3627v351h351v-351h-351z" glyph-name="Oslash" unicode="Ø"/>
<glyph d="M702 117v351h351v-351h-351zM1287 117v351h351v-351h-351zM117 702v351h351v-351h-351zM1872 702v351h351v-351h-351zM117 1287v351h351v-351h-351zM1872 1287v351h351v-351h-351zM117 1872v351h351v-351h-351zM1872 1872v351h351v-351h-351zM117 2457v351h351v-351h-351 zM1872 2457v351h351v-351h-351zM117 3042v351h351v-351h-351zM1872 3042v351h351v-351h-351zM117 3627v351h351v-351h-351zM1872 3627v351h351v-351h-351z" glyph-name="Ugrave" unicode="Ù"/>
<glyph d="M702 117v351h351v-351h-351zM1287 117v351h351v-351h-351zM117 702v351h351v-351h-351zM1872 702v351h351v-351h-351zM117 1287v351h351v-351h-351zM1872 1287v351h351v-351h-351zM117 1872v351h351v-351h-351zM1872 1872v351h351v-351h-351zM117 2457v351h351v-351h-351 zM1872 2457v351h351v-351h-351zM117 3042v351h351v-351h-351zM1872 3042v351h351v-351h-351zM117 3627v351h351v-351h-351zM1872 3627v351h351v-351h-351z" glyph-name="Uacute" unicode="Ú"/>
<glyph d="M702 117v351h351v-351h-351zM1287 117v351h351v-351h-351zM117 702v351h351v-351h-351zM1872 702v351h351v-351h-351zM117 1287v351h351v-351h-351zM1872 1287v351h351v-351h-351zM117 1872v351h351v-351h-351zM1872 1872v351h351v-351h-351zM117 2457v351h351v-351h-351 zM1872 2457v351h351v-351h-351zM117 3042v351h351v-351h-351zM1872 3042v351h351v-351h-351zM117 3627v351h351v-351h-351zM1872 3627v351h351v-351h-351z" glyph-name="Ucircumflex" unicode="Û"/>
<glyph d="M702 117v351h351v-351h-351zM1287 117v351h351v-351h-351zM117 702v351h351v-351h-351zM1872 702v351h351v-351h-351zM117 1287v351h351v-351h-351zM1872 1287v351h351v-351h-351zM117 1872v351h351v-351h-351zM1872 1872v351h351v-351h-351zM117 2457v351h351v-351h-351 zM1872 2457v351h351v-351h-351zM117 3042v351h351v-351h-351zM1872 3042v351h351v-351h-351zM117 3627v351h351v-351h-351zM1872 3627v351h351v-351h-351z" glyph-name="Udieresis" unicode="Ü"/>
<glyph d="M702 117v351h351v-351h-351zM1287 117v351h351v-351h-351zM1872 702v351h351v-351h-351zM1872 1287v351h351v-351h-351zM702 1872v351h351v-351h-351zM1287 1872v351h351v-351h-351zM1872 1872v351h351v-351h-351zM117 2457v351h351v-351h-351zM1872 2457v351h351v-351 h-351zM117 3042v351h351v-351h-351zM1872 3042v351h351v-351h-351zM117 3627v351h351v-351h-351zM1872 3627v351h351v-351h-351z" glyph-name="Yacute" unicode="Ý"/>
<glyph d="M117 117v351h351v-351h-351zM117 702v351h351v-351h-351zM702 702v351h351v-351h-351zM1287 702v351h351v-351h-351zM117 1287v351h351v-351h-351zM1872 1287v351h351v-351h-351zM117 1872v351h351v-351h-351zM1872 1872v351h351v-351h-351zM117 2457v351h351v-351h-351z M1872 2457v351h351v-351h-351zM117 3042v351h351v-351h-351zM702 3042v351h351v-351h-351zM1287 3042v351h351v-351h-351zM117 3627v351h351v-351h-351z" glyph-name="Thorn" unicode="Þ"/>
<glyph d="M117 117v351h351v-351h-351zM1287 117v351h351v-351h-351zM117 702v351h351v-351h-351zM1872 702v351h351v-351h-351zM117 1287v351h351v-351h-351zM1872 1287v351h351v-351h-351zM117 1872v351h351v-351h-351zM1287 1872v351h351v-351h-351zM117 2457v351h351v-351h-351 zM1872 2457v351h351v-351h-351zM117 3042v351h351v-351h-351zM1872 3042v351h351v-351h-351zM702 3627v351h351v-351h-351zM1287 3627v351h351v-351h-351z" glyph-name="germandbls" unicode="ß"/>
<glyph d="M117 117v351h351v-351h-351zM1872 117v351h351v-351h-351zM117 702v351h351v-351h-351zM1872 702v351h351v-351h-351zM117 1287v351h351v-351h-351zM1872 1287v351h351v-351h-351zM117 1872v351h351v-351h-351zM702 1872v351h351v-351h-351zM1287 1872v351h351v-351h-351 zM1872 1872v351h351v-351h-351zM117 2457v351h351v-351h-351zM1872 2457v351h351v-351h-351zM117 3042v351h351v-351h-351zM1872 3042v351h351v-351h-351zM702 3627v351h351v-351h-351zM1287 3627v351h351v-351h-351z" glyph-name="agrave" unicode="à"/>
<glyph d="M117 117v351h351v-351h-351zM1872 117v351h351v-351h-351zM117 702v351h351v-351h-351zM1872 702v351h351v-351h-351zM117 1287v351h351v-351h-351zM1872 1287v351h351v-351h-351zM117 1872v351h351v-351h-351zM702 1872v351h351v-351h-351zM1287 1872v351h351v-351h-351 zM1872 1872v351h351v-351h-351zM117 2457v351h351v-351h-351zM1872 2457v351h351v-351h-351zM117 3042v351h351v-351h-351zM1872 3042v351h351v-351h-351zM702 3627v351h351v-351h-351zM1287 3627v351h351v-351h-351z" glyph-name="aacute" unicode="á"/>
<glyph d="M117 117v351h351v-351h-351zM1872 117v351h351v-351h-351zM117 702v351h351v-351h-351zM1872 702v351h351v-351h-351zM117 1287v351h351v-351h-351zM1872 1287v351h351v-351h-351zM117 1872v351h351v-351h-351zM702 1872v351h351v-351h-351zM1287 1872v351h351v-351h-351 zM1872 1872v351h351v-351h-351zM117 2457v351h351v-351h-351zM1872 2457v351h351v-351h-351zM117 3042v351h351v-351h-351zM1872 3042v351h351v-351h-351zM702 3627v351h351v-351h-351zM1287 3627v351h351v-351h-351z" glyph-name="acircumflex" unicode="â"/>
<glyph d="M117 117v351h351v-351h-351zM1872 117v351h351v-351h-351zM117 702v351h351v-351h-351zM1872 702v351h351v-351h-351zM117 1287v351h351v-351h-351zM1872 1287v351h351v-351h-351zM117 1872v351h351v-351h-351zM702 1872v351h351v-351h-351zM1287 1872v351h351v-351h-351 zM1872 1872v351h351v-351h-351zM117 2457v351h351v-351h-351zM1872 2457v351h351v-351h-351zM117 3042v351h351v-351h-351zM1872 3042v351h351v-351h-351zM702 3627v351h351v-351h-351zM1287 3627v351h351v-351h-351z" glyph-name="atilde" unicode="ã"/>
<glyph d="M117 117v351h351v-351h-351zM1872 117v351h351v-351h-351zM117 702v351h351v-351h-351zM1872 702v351h351v-351h-351zM117 1287v351h351v-351h-351zM1872 1287v351h351v-351h-351zM117 1872v351h351v-351h-351zM702 1872v351h351v-351h-351zM1287 1872v351h351v-351h-351 zM1872 1872v351h351v-351h-351zM117 2457v351h351v-351h-351zM1872 2457v351h351v-351h-351zM117 3042v351h351v-351h-351zM1872 3042v351h351v-351h-351zM702 3627v351h351v-351h-351zM1287 3627v351h351v-351h-351z" glyph-name="adieresis" unicode="ä"/>
<glyph d="M117 117v351h351v-351h-351zM1872 117v351h351v-351h-351zM117 702v351h351v-351h-351zM1872 702v351h351v-351h-351zM117 1287v351h351v-351h-351zM1872 1287v351h351v-351h-351zM117 1872v351h351v-351h-351zM702 1872v351h351v-351h-351zM1287 1872v351h351v-351h-351 zM1872 1872v351h351v-351h-351zM117 2457v351h351v-351h-351zM1872 2457v351h351v-351h-351zM117 3042v351h351v-351h-351zM1872 3042v351h351v-351h-351zM702 3627v351h351v-351h-351zM1287 3627v351h351v-351h-351z" glyph-name="aring" unicode="å"/>
<glyph d="M117 117v351h351v-351h-351zM702 117v351h351v-351h-351zM1287 117v351h351v-351h-351zM1872 117v351h351v-351h-351zM117 702v351h351v-351h-351zM702 702v351h351v-351h-351zM117 1287v351h351v-351h-351zM702 1287v351h351v-351h-351zM1287 1287v351h351v-351h-351z M1872 1287v351h351v-351h-351zM702 1872v351h351v-351h-351zM117 2457v351h351v-351h-351zM702 2457v351h351v-351h-351zM1287 2457v351h351v-351h-351zM1872 2457v351h351v-351h-351z" glyph-name="ae" unicode="æ"/>
<glyph d="M702 117v351h351v-351h-351zM1287 117v351h351v-351h-351zM117 702v351h351v-351h-351zM1872 702v351h351v-351h-351zM117 1287v351h351v-351h-351zM117 1872v351h351v-351h-351zM117 2457v351h351v-351h-351zM117 3042v351h351v-351h-351zM1872 3042v351h351v-351h-351z M702 3627v351h351v-351h-351zM1287 3627v351h351v-351h-351z" glyph-name="ccedilla" unicode="ç"/>
<glyph d="M117 117v351h351v-351h-351zM702 117v351h351v-351h-351zM1287 117v351h351v-351h-351zM1872 117v351h351v-351h-351zM117 702v351h351v-351h-351zM117 1287v351h351v-351h-351zM117 1872v351h351v-351h-351zM702 1872v351h351v-351h-351zM1287 1872v351h351v-351h-351z M1872 1872v351h351v-351h-351zM117 2457v351h351v-351h-351zM117 3042v351h351v-351h-351zM117 3627v351h351v-351h-351zM702 3627v351h351v-351h-351zM1287 3627v351h351v-351h-351zM1872 3627v351h351v-351h-351z" glyph-name="egrave" unicode="è"/>
<glyph d="M117 117v351h351v-351h-351zM702 117v351h351v-351h-351zM1287 117v351h351v-351h-351zM1872 117v351h351v-351h-351zM117 702v351h351v-351h-351zM117 1287v351h351v-351h-351zM117 1872v351h351v-351h-351zM702 1872v351h351v-351h-351zM1287 1872v351h351v-351h-351z M1872 1872v351h351v-351h-351zM117 2457v351h351v-351h-351zM117 3042v351h351v-351h-351zM117 3627v351h351v-351h-351zM702 3627v351h351v-351h-351zM1287 3627v351h351v-351h-351zM1872 3627v351h351v-351h-351z" glyph-name="eacute" unicode="é"/>
<glyph d="M117 117v351h351v-351h-351zM702 117v351h351v-351h-351zM1287 117v351h351v-351h-351zM1872 117v351h351v-351h-351zM117 702v351h351v-351h-351zM117 1287v351h351v-351h-351zM117 1872v351h351v-351h-351zM702 1872v351h351v-351h-351zM1287 1872v351h351v-351h-351z M1872 1872v351h351v-351h-351zM117 2457v351h351v-351h-351zM117 3042v351h351v-351h-351zM117 3627v351h351v-351h-351zM702 3627v351h351v-351h-351zM1287 3627v351h351v-351h-351zM1872 3627v351h351v-351h-351z" glyph-name="ecircumflex" unicode="ê"/>
<glyph d="M117 117v351h351v-351h-351zM702 117v351h351v-351h-351zM1287 117v351h351v-351h-351zM1872 117v351h351v-351h-351zM117 702v351h351v-351h-351zM117 1287v351h351v-351h-351zM117 1872v351h351v-351h-351zM702 1872v351h351v-351h-351zM1287 1872v351h351v-351h-351z M1872 1872v351h351v-351h-351zM117 2457v351h351v-351h-351zM117 3042v351h351v-351h-351zM117 3627v351h351v-351h-351zM702 3627v351h351v-351h-351zM1287 3627v351h351v-351h-351zM1872 3627v351h351v-351h-351z" glyph-name="edieresis" unicode="ë"/>
<glyph d="M702 117v351h351v-351h-351zM1287 117v351h351v-351h-351zM1872 117v351h351v-351h-351zM1287 702v351h351v-351h-351zM1287 1287v351h351v-351h-351zM1287 1872v351h351v-351h-351zM1287 2457v351h351v-351h-351zM1287 3042v351h351v-351h-351zM702 3627v351h351v-351 h-351zM1287 3627v351h351v-351h-351zM1872 3627v351h351v-351h-351z" glyph-name="igrave" unicode="ì"/>
<glyph d="M702 117v351h351v-351h-351zM1287 117v351h351v-351h-351zM1872 117v351h351v-351h-351zM1287 702v351h351v-351h-351zM1287 1287v351h351v-351h-351zM1287 1872v351h351v-351h-351zM1287 2457v351h351v-351h-351zM1287 3042v351h351v-351h-351zM702 3627v351h351v-351 h-351zM1287 3627v351h351v-351h-351zM1872 3627v351h351v-351h-351z" glyph-name="iacute" unicode="í"/>
<glyph d="M702 117v351h351v-351h-351zM1287 117v351h351v-351h-351zM1872 117v351h351v-351h-351zM1287 702v351h351v-351h-351zM1287 1287v351h351v-351h-351zM1287 1872v351h351v-351h-351zM1287 2457v351h351v-351h-351zM1287 3042v351h351v-351h-351zM702 3627v351h351v-351 h-351zM1287 3627v351h351v-351h-351zM1872 3627v351h351v-351h-351z" glyph-name="icircumflex" unicode="î"/>
<glyph d="M702 117v351h351v-351h-351zM1287 117v351h351v-351h-351zM1872 117v351h351v-351h-351zM1287 702v351h351v-351h-351zM1287 1287v351h351v-351h-351zM1287 1872v351h351v-351h-351zM1287 2457v351h351v-351h-351zM1287 3042v351h351v-351h-351zM702 3627v351h351v-351 h-351zM1287 3627v351h351v-351h-351zM1872 3627v351h351v-351h-351z" glyph-name="idieresis" unicode="ï"/>
<glyph d="M702 117v351h351v-351h-351zM1287 117v351h351v-351h-351zM117 702v351h351v-351h-351zM1872 702v351h351v-351h-351zM117 1287v351h351v-351h-351zM1872 1287v351h351v-351h-351zM702 1872v351h351v-351h-351zM1287 1872v351h351v-351h-351zM1872 1872v351h351v-351 h-351zM1872 2457v351h351v-351h-351zM1287 3042v351h351v-351h-351zM702 3627v351h351v-351h-351zM1872 3627v351h351v-351h-351z" glyph-name="eth" unicode="ð"/>
<glyph d="M117 117v351h351v-351h-351zM1872 117v351h351v-351h-351zM117 702v351h351v-351h-351zM1872 702v351h351v-351h-351zM117 1287v351h351v-351h-351zM1872 1287v351h351v-351h-351zM117 1872v351h351v-351h-351zM1287 1872v351h351v-351h-351zM1872 1872v351h351v-351 h-351zM117 2457v351h351v-351h-351zM702 2457v351h351v-351h-351zM1872 2457v351h351v-351h-351zM117 3042v351h351v-351h-351zM1872 3042v351h351v-351h-351zM117 3627v351h351v-351h-351zM1872 3627v351h351v-351h-351z" glyph-name="ntilde" unicode="ñ"/>
<glyph d="M702 117v351h351v-351h-351zM1287 117v351h351v-351h-351zM117 702v351h351v-351h-351zM1872 702v351h351v-351h-351zM117 1287v351h351v-351h-351zM1872 1287v351h351v-351h-351zM117 1872v351h351v-351h-351zM1872 1872v351h351v-351h-351zM117 2457v351h351v-351h-351 zM1872 2457v351h351v-351h-351zM117 3042v351h351v-351h-351zM1872 3042v351h351v-351h-351zM702 3627v351h351v-351h-351zM1287 3627v351h351v-351h-351z" glyph-name="ograve" unicode="ò"/>
<glyph d="M702 117v351h351v-351h-351zM1287 117v351h351v-351h-351zM117 702v351h351v-351h-351zM1872 702v351h351v-351h-351zM117 1287v351h351v-351h-351zM1872 1287v351h351v-351h-351zM117 1872v351h351v-351h-351zM1872 1872v351h351v-351h-351zM117 2457v351h351v-351h-351 zM1872 2457v351h351v-351h-351zM117 3042v351h351v-351h-351zM1872 3042v351h351v-351h-351zM702 3627v351h351v-351h-351zM1287 3627v351h351v-351h-351z" glyph-name="oacute" unicode="ó"/>
<glyph d="M702 117v351h351v-351h-351zM1287 117v351h351v-351h-351zM117 702v351h351v-351h-351zM1872 702v351h351v-351h-351zM117 1287v351h351v-351h-351zM1872 1287v351h351v-351h-351zM117 1872v351h351v-351h-351zM1872 1872v351h351v-351h-351zM117 2457v351h351v-351h-351 zM1872 2457v351h351v-351h-351zM117 3042v351h351v-351h-351zM1872 3042v351h351v-351h-351zM702 3627v351h351v-351h-351zM1287 3627v351h351v-351h-351z" glyph-name="ocircumflex" unicode="ô"/>
<glyph d="M702 117v351h351v-351h-351zM1287 117v351h351v-351h-351zM117 702v351h351v-351h-351zM1872 702v351h351v-351h-351zM117 1287v351h351v-351h-351zM1872 1287v351h351v-351h-351zM117 1872v351h351v-351h-351zM1872 1872v351h351v-351h-351zM117 2457v351h351v-351h-351 zM1872 2457v351h351v-351h-351zM117 3042v351h351v-351h-351zM1872 3042v351h351v-351h-351zM702 3627v351h351v-351h-351zM1287 3627v351h351v-351h-351z" glyph-name="otilde" unicode="õ"/>
<glyph d="M702 117v351h351v-351h-351zM1287 117v351h351v-351h-351zM117 702v351h351v-351h-351zM1872 702v351h351v-351h-351zM117 1287v351h351v-351h-351zM1872 1287v351h351v-351h-351zM117 1872v351h351v-351h-351zM1872 1872v351h351v-351h-351zM117 2457v351h351v-351h-351 zM1872 2457v351h351v-351h-351zM117 3042v351h351v-351h-351zM1872 3042v351h351v-351h-351zM702 3627v351h351v-351h-351zM1287 3627v351h351v-351h-351z" glyph-name="odieresis" unicode="ö"/>
<glyph d="M1287 702v351h351v-351h-351zM117 1872v351h351v-351h-351zM702 1872v351h351v-351h-351zM1287 1872v351h351v-351h-351zM1872 1872v351h351v-351h-351zM2457 1872v351h351v-351h-351zM1287 3042v351h351v-351h-351z" glyph-name="divide" horiz-adv-x="3510" unicode="÷"/>
<glyph d="M702 117v351h351v-351h-351zM1287 117v351h351v-351h-351zM117 702v351h351v-351h-351zM1872 702v351h351v-351h-351zM117 1287v351h351v-351h-351zM1872 1287v351h351v-351h-351zM117 1872v351h351v-351h-351zM1872 1872v351h351v-351h-351zM117 2457v351h351v-351h-351 zM1872 2457v351h351v-351h-351zM117 3042v351h351v-351h-351zM1872 3042v351h351v-351h-351zM702 3627v351h351v-351h-351zM1287 3627v351h351v-351h-351z" glyph-name="oslash" unicode="ø"/>
<glyph d="M702 117v351h351v-351h-351zM1287 117v351h351v-351h-351zM117 702v351h351v-351h-351zM1872 702v351h351v-351h-351zM117 1287v351h351v-351h-351zM1872 1287v351h351v-351h-351zM117 1872v351h351v-351h-351zM1872 1872v351h351v-351h-351zM117 2457v351h351v-351h-351 zM1872 2457v351h351v-351h-351zM117 3042v351h351v-351h-351zM1872 3042v351h351v-351h-351zM117 3627v351h351v-351h-351zM1872 3627v351h351v-351h-351z" glyph-name="ugrave" unicode="ù"/>
<glyph d="M702 117v351h351v-351h-351zM1287 117v351h351v-351h-351zM117 702v351h351v-351h-351zM1872 702v351h351v-351h-351zM117 1287v351h351v-351h-351zM1872 1287v351h351v-351h-351zM117 1872v351h351v-351h-351zM1872 1872v351h351v-351h-351zM117 2457v351h351v-351h-351 zM1872 2457v351h351v-351h-351zM117 3042v351h351v-351h-351zM1872 3042v351h351v-351h-351zM117 3627v351h351v-351h-351zM1872 3627v351h351v-351h-351z" glyph-name="uacute" unicode="ú"/>
<glyph d="M702 117v351h351v-351h-351zM1287 117v351h351v-351h-351zM117 702v351h351v-351h-351zM1872 702v351h351v-351h-351zM117 1287v351h351v-351h-351zM1872 1287v351h351v-351h-351zM117 1872v351h351v-351h-351zM1872 1872v351h351v-351h-351zM117 2457v351h351v-351h-351 zM1872 2457v351h351v-351h-351zM117 3042v351h351v-351h-351zM1872 3042v351h351v-351h-351zM117 3627v351h351v-351h-351zM1872 3627v351h351v-351h-351z" glyph-name="ucircumflex" unicode="û"/>
<glyph d="M702 117v351h351v-351h-351zM1287 117v351h351v-351h-351zM117 702v351h351v-351h-351zM1872 702v351h351v-351h-351zM117 1287v351h351v-351h-351zM1872 1287v351h351v-351h-351zM117 1872v351h351v-351h-351zM1872 1872v351h351v-351h-351zM117 2457v351h351v-351h-351 zM1872 2457v351h351v-351h-351zM117 3042v351h351v-351h-351zM1872 3042v351h351v-351h-351zM117 3627v351h351v-351h-351zM1872 3627v351h351v-351h-351z" glyph-name="udieresis" unicode="ü"/>
<glyph d="M702 117v351h351v-351h-351zM1287 117v351h351v-351h-351zM1872 702v351h351v-351h-351zM1872 1287v351h351v-351h-351zM702 1872v351h351v-351h-351zM1287 1872v351h351v-351h-351zM1872 1872v351h351v-351h-351zM117 2457v351h351v-351h-351zM1872 2457v351h351v-351 h-351zM117 3042v351h351v-351h-351zM1872 3042v351h351v-351h-351zM117 3627v351h351v-351h-351zM1872 3627v351h351v-351h-351z" glyph-name="yacute" unicode="ý"/>
<glyph d="M117 117v351h351v-351h-351zM117 702v351h351v-351h-351zM702 702v351h351v-351h-351zM1287 702v351h351v-351h-351zM117 1287v351h351v-351h-351zM1872 1287v351h351v-351h-351zM117 1872v351h351v-351h-351zM1872 1872v351h351v-351h-351zM117 2457v351h351v-351h-351z M1872 2457v351h351v-351h-351zM117 3042v351h351v-351h-351zM702 3042v351h351v-351h-351zM1287 3042v351h351v-351h-351zM117 3627v351h351v-351h-351z" glyph-name="thorn" unicode="þ"/>
</font>
</defs>
</svg>
